<svg width="131" height="109" viewBox="0 0 131 109" fill="none" xmlns="http://www.w3.org/2000/svg">
<path fill-rule="evenodd" clip-rule="evenodd" d="M9.30023 46.8C44.3002 31.6 67.6002 21.5 79.3002 16.6C112.6 2.69995 119.6 0.299951 124.1 0.199951C125.1 0.199951 127.3 0.399953 128.8 1.59995C130 2.59995 130.3 3.89996 130.5 4.89996C130.7 5.89996 130.9 7.99995 130.7 9.59995C128.9 28.6 121.1 74.6999 117.1 95.8999C115.4 104.9 112.1 107.9 108.9 108.2C101.9 108.8 96.6002 103.6 89.9002 99.2C79.3002 92.3 73.4002 88 63.1002 81.2C51.2002 73.4 58.9002 69.1 65.7002 62.1C67.5002 60.3 98.2002 32.3 98.8002 29.8C98.9002 29.5 98.9002 28.3 98.2002 27.7C97.5002 27.1 96.5002 27.3 95.7002 27.5C94.6002 27.7 77.8002 38.9 45.1002 61C40.3002 64.3 36.0002 65.9 32.1002 65.8C27.8002 65.7 19.6002 63.3999 13.4002 61.3999C5.90023 58.9999 -0.0997691 57.7 0.400231 53.5C0.700231 51.3 3.70023 49.1 9.30023 46.8Z" fill="white"/>
</svg>
