
<svg width="3840" height="2160" viewBox="0 0 3840 2160" fill="none" xmlns="http://www.w3.org/2000/svg">
<g clip-path="url(#clip0_336_14)">
<rect width="3840" height="2160" fill="white"/>
<path d="M4834.31 -1679.56C2866.85 -1980.35 296.065 2009.85 -2101.84 798.47C-2195.35 545.397 -2285.49 291.038 -2379 38.4474C447.099 574.802 1731.37 -2976.25 4557.31 -2439.58C4651.14 -2186.99 4740.48 -1932.47 4834.31 -1679.56Z" fill="#ED4C5C"/>
<path d="M5111.15 -919.697C3449.3 -1243.95 34.9698 2558.89 -1824.67 1558.49C-1918.67 1305.74 -2007.84 1051.22 -2101.84 798.468C724.262 1334.82 2008.37 -2216.4 4834.31 -1679.56C4928.14 -1426.97 5017.48 -1172.45 5111.15 -919.697Z" fill="#FF8736"/>
<path d="M5388.32 -159.514C3770.65 -447.294 769.894 3651.04 -1547.67 2318.51C-1641.67 2065.76 -1731.16 1811.24 -1824.83 1558.49C1001.1 2095.01 2285.7 -1455.89 5111.15 -919.536C5205.15 -666.624 5294.64 -412.265 5388.32 -159.514Z" fill="#FFCE31"/>
<path d="M5665.64 600.51C4105.33 356.114 670.919 4748.18 -1270.83 3078.54C-1364.66 2825.95 -1453.84 2571.27 -1547.67 2318.51C1277.79 2855.35 2562.22 -696.188 5388.32 -159.512C5481.99 93.2392 5571.8 347.598 5665.64 600.51Z" fill="#83BF4F"/>
<path d="M5942.32 1360.53C4165.58 1065.84 1012.35 5611.84 -993.828 3838.72C-1087.66 3585.81 -1177.64 3331.61 -1270.99 3078.7C1554.95 3615.05 2839.38 64.1546 5665.48 600.669C5759.15 853.421 5848.81 1107.62 5942.32 1360.53Z" fill="#275FD9"/>
<path d="M6219 2120.72C3393.86 1584.04 2109.11 5135.26 -716.665 4598.58C-810.499 4345.99 -900.155 4091.47 -993.828 3838.72C1832.11 4375.07 3116.38 824.018 5942.32 1360.53C6035.99 1613.61 6125.81 1867.96 6219 2120.72Z" fill="#9028E0"/>
</g>
<defs>
<clipPath id="clip0_336_14">
<rect width="3840" height="2160" fill="white"/>
</clipPath>
</defs>
</svg>
