<svg width="512" height="512" viewBox="0 0 512 512" fill="none" xmlns="http://www.w3.org/2000/svg">
<g clip-path="url(#clip0_541_10)">
<mask id="mask0_541_10" style="mask-type:alpha" maskUnits="userSpaceOnUse" x="0" y="0" width="512" height="512">
<path d="M462 0H50C22.3858 0 0 22.3858 0 50V462C0 489.614 22.3858 512 50 512H462C489.614 512 512 489.614 512 462V50C512 22.3858 489.614 0 462 0Z" fill="black"/>
</mask>
<g mask="url(#mask0_541_10)">
<ellipse cx="256" cy="279" rx="271" ry="294" fill="white"/>
<path d="M235.131 -15.8604C233.862 -15.7269 229.789 -15.2595 226.116 -14.9256C173.896 -9.45008 65.9175 -72.1234 23.9813 -37C16.2351 -30.5896 -42.5893 52.6503 -48.9999 60.3962C-83.7242 101.863 -6.26883 167.569 -13.7479 222.658C-15.4173 234.878 -216.669 461.784 -215 474.004C-207.521 529.093 -5.00008 542.114 29.7241 583.581C36.1348 591.326 109.523 561.09 117.269 567.5C158.738 602.223 222.844 601.765 277.936 609.243C290.156 610.913 331.424 621.669 343.644 620C398.736 612.521 497.531 602.223 539 567.5C546.746 561.09 526.589 446.219 533 438.474C567.724 397.007 519.269 343.454 526.748 288.365C528.417 276.145 575.669 142.195 574 129.975C566.521 74.8862 540.724 9.467 506 -32C499.589 -39.7458 433.393 -25.5896 425.647 -32C384.312 -66.5892 344.112 -7.38008 289.755 -14.6585C283.879 -15.4598 275.331 -15.7936 259.505 -15.9272C247.418 -16.0607 236.4 -15.994 235.131 -15.8604ZM238.47 12.9861C238.47 20.7988 239.004 37.7594 239.739 53.8521C240.14 61.7315 240.607 73.0165 240.807 78.8927C241.542 99.7264 243.746 154.415 244.079 159.289L244.413 164.164L241.408 163.83C239.739 163.696 238.203 163.296 237.936 163.095C237.736 162.828 237.268 158.221 237.001 152.812C235.799 129.04 231.859 36.8247 231.458 23.3362L231.058 8.51227L232.928 8.24518C233.929 8.11163 235.599 7.91132 236.667 7.84454L238.47 7.77777V12.9861ZM302.376 11.3836C302.443 11.4504 302.643 31.6162 302.844 56.1893C303.111 80.8291 303.445 102.932 303.645 105.335C303.845 107.806 303.778 109.943 303.445 110.076C303.177 110.277 301.508 110.277 299.839 110.076L296.767 109.809L296.299 90.3779C296.032 79.6272 295.698 67.7413 295.565 63.8684C295.031 52.0493 294.563 11.9178 294.964 10.9161C295.231 10.1816 295.965 10.1149 298.77 10.5823C300.707 10.9829 302.309 11.3168 302.376 11.3836ZM147.92 33.753C148.321 34.354 151.459 71.1469 155.332 119.291C156.601 135.651 157.87 150.609 158.07 152.478C158.404 155.884 158.337 156.017 156.2 157.353C154.998 158.087 153.796 158.688 153.529 158.688C153.329 158.688 152.928 156.952 152.728 154.815C151.793 146.135 148.187 104.2 145.65 73.8846C144.181 56.0558 142.845 40.0966 142.645 38.3605C142.311 35.4224 142.378 35.1552 144.114 34.2204C146.251 33.0852 147.453 32.8849 147.92 33.753ZM331.758 47.1747C333.628 47.8424 333.828 48.1763 334.229 51.9824C334.897 58.6599 334.696 90.5782 333.962 90.5782C332.025 90.5782 328.019 88.3079 327.685 87.0392C327.484 86.2379 327.284 76.7558 327.284 66.0051C327.284 44.3034 327.017 45.5721 331.758 47.1747ZM208.42 50.3131C208.42 52.116 208.888 62.0655 209.422 72.5491C209.956 83.0327 210.557 96.3209 210.824 102.063C211.292 113.682 211.425 113.282 206.951 113.549C204.748 113.615 204.748 113.615 204.614 110.277C204.48 108.407 204.147 102.598 203.746 97.2557C203.412 91.9137 202.611 80.3617 202.076 71.5475C201.542 62.7332 200.874 53.9857 200.674 52.116C200.273 48.7772 200.34 48.6438 202.143 47.976C203.212 47.5754 205.081 47.2415 206.283 47.2415C208.42 47.1747 208.42 47.1747 208.42 50.3131ZM393.661 59.4613L395.931 60.3962L396.399 69.3439C396.599 74.2184 396.732 84.7689 396.599 92.715L396.399 107.272L393.594 105.87L390.789 104.534L390.589 82.365C390.455 70.1452 390.522 59.7952 390.656 59.3278C390.923 58.3261 390.923 58.3261 393.661 59.4613ZM271.725 68.2087C272.126 68.6094 273.061 100.995 273.128 117.422L273.194 127.304L270.056 126.837C268.253 126.637 266.784 126.436 266.717 126.369C266.517 126.236 264.513 76.7559 264.513 71.9481V67.0068L267.919 67.4074C269.856 67.6745 271.525 68.0084 271.725 68.2087ZM425.513 72.9498C426.315 73.8846 426.448 88.5082 426.649 169.172C426.849 261.788 426.849 264.192 425.647 264.192C424.912 264.192 423.911 263.791 423.31 263.324C422.308 262.589 422.175 254.51 421.841 175.382C421.574 127.438 421.24 83.9008 421.039 78.6256L420.639 69.01L422.575 70.4123C423.711 71.2136 424.979 72.3488 425.513 72.9498ZM365.614 86.6385C365.948 86.9056 366.282 90.7118 366.349 95.0521C366.683 109.809 366.749 200.289 366.416 200.556C366.282 200.689 365.08 200.356 363.744 199.821L361.34 198.82V141.995V85.2363L363.21 85.637C364.212 85.9041 365.28 86.3047 365.614 86.6385ZM181.309 90.3779C181.509 92.1808 181.843 96.2541 182.043 99.5928C182.244 102.865 182.711 110.344 183.112 116.153C183.913 127.905 183.78 128.64 179.973 128.64C177.97 128.64 177.703 128.439 177.436 126.436C176.768 122.496 174.431 89.6434 174.765 89.1092C175.098 88.6418 178.571 87.4398 180.174 87.3063C180.574 87.2395 181.108 88.6418 181.309 90.3779ZM70.859 107.405C71.5936 114.484 73.0627 129.308 74.1311 140.325C75.2663 151.343 76.2012 160.692 76.2012 161.092C76.2012 161.893 71.0593 164.431 70.5251 163.897C70.1912 163.563 63.5135 104.467 63.5135 101.796C63.5135 100.194 68.6553 93.4496 69.3231 94.1841C69.5235 94.3176 70.1912 100.261 70.859 107.405ZM332.693 114.417L334.63 115.552L334.696 129.975C334.763 137.855 334.897 146.669 334.897 149.54C335.03 155.55 334.296 156.551 330.69 155.283L328.62 154.548V148.806C328.62 145.6 328.419 136.319 328.152 128.106L327.751 113.282H329.287C330.089 113.282 331.625 113.816 332.693 114.417ZM100.174 140.325C101.376 153.146 103.313 174.781 104.582 188.403L106.852 213.11L104.248 215.714L101.71 218.318L101.243 213.043C100.976 210.105 99.6401 196.483 98.2377 182.727C96.8354 168.972 94.8321 149.006 93.8304 138.389L91.9607 119.158L94.565 116.754C96.9022 114.55 97.1693 114.484 97.6367 115.685C97.9039 116.353 99.0391 127.438 100.174 140.325ZM50.158 148.405C51.6271 161.56 55.5002 196.549 58.8391 226.131C62.1779 255.712 65.3165 284.224 65.9175 289.566C66.4517 294.908 67.3866 302.988 67.9208 307.596C68.8557 315.408 68.8557 315.942 67.7873 316.744C66.1846 317.946 65.5168 317.812 65.5168 316.41C65.5168 315.809 64.9158 310.734 64.1813 305.258C62.9793 296.11 60.9759 280.619 56.5019 245.829C55.567 238.818 53.764 224.862 52.4952 214.779C51.1597 204.696 49.2231 189.672 48.1547 181.392C47.0863 173.112 45.2833 158.955 44.148 149.807C42.946 140.726 42.2115 132.646 42.4118 131.778C42.8793 129.975 46.8192 123.698 47.2198 124.099C47.3534 124.299 48.6889 135.184 50.158 148.405ZM29.7241 177.185C30.7258 185.198 32.5956 199.821 33.8643 209.771C35.1331 219.653 36.7358 232.007 37.4703 237.148L38.7391 246.497L37.3368 247.699C36.5354 248.367 35.7341 248.634 35.467 248.367C35.1999 248.099 34.6657 245.428 34.265 242.49C33.8643 239.552 31.3936 222.391 28.7225 204.429L23.9813 171.709L25.5172 167.169C26.3185 164.698 27.1866 162.695 27.3869 162.695C27.6541 162.695 28.6557 169.239 29.7241 177.185ZM396.332 168.437C397.267 169.372 397.4 173.512 397.4 204.162V238.818H395.531C391.457 238.818 391.524 239.819 391.257 201.891L391.056 167.369H393.193C394.329 167.369 395.798 167.836 396.332 168.437ZM250.156 180.39C265.248 182.66 278.403 186.867 291.425 193.545C299.839 197.885 303.845 200.89 313.194 209.838C327.084 223.126 335.631 234.745 343.644 251.171C355.331 275.076 359.871 296.244 365.614 353.002C368.219 378.443 371.624 424.584 372.359 443.482C372.559 448.957 373.027 457.972 373.427 463.514C374.162 475.266 375.03 531.496 364.679 536.504C350.322 543.449 342.73 579.107 324.5 583.581C302.196 589.056 291.491 525.681 269.455 525.748L243.478 513L243.612 494.564C243.612 490.357 244.013 480.542 244.413 472.862C246.417 435.669 246.016 388.727 243.412 362.685C241.943 347.727 239.071 329.564 237.468 325.558C237.135 324.69 238.67 323.955 245.281 321.685C257.368 317.478 267.852 312.203 269.455 309.599C272.326 304.657 267.184 297.579 260.64 297.579C259.505 297.579 256.099 298.781 252.961 300.184C238.003 307.061 208.02 315.141 190.724 316.944C178.771 318.213 160.207 317.478 147.319 315.141C140.307 313.872 127.753 309.131 117.269 303.723C105.183 297.446 97.7703 289.099 95.5667 279.216C94.3647 273.874 94.6985 263.19 96.2344 257.181C97.9038 250.57 102.578 240.955 106.852 235.345C125.884 210.305 165.149 188.603 205.415 180.991C218.237 178.587 236.4 178.32 250.156 180.39ZM456.164 182.46C458.568 183.462 458.835 183.729 458.835 185.999C458.969 204.229 458.568 245.896 458.234 247.632C458.168 248.233 454.695 248.3 453.226 247.766C452.291 247.432 452.158 243.826 452.158 214.378C452.158 193.278 452.425 181.392 452.825 181.392C453.159 181.392 454.695 181.859 456.164 182.46ZM485.346 219.119L487.75 220.121L487.282 275.41C486.748 345.857 486.681 347.927 484.144 354.004C480.004 363.953 480.204 365.957 480.605 322.286C480.738 300.451 481.072 278.348 481.206 273.207C481.339 268.065 481.473 253.575 481.54 240.955C481.54 225.73 481.74 218.118 482.207 218.118C482.608 218.118 484.01 218.585 485.346 219.119ZM83.747 235.746C84.1477 241.155 84.0141 241.689 82.0776 245.963L79.9407 250.503L79.1394 243.826C77.8706 233.142 77.8706 232.674 80.4082 231.072C81.5434 230.271 82.7454 229.736 82.9457 229.87C83.1461 230.004 83.5467 232.674 83.747 235.746ZM42.4786 276.011C43.0796 281.487 47.754 317.812 50.158 335.641C53.764 363.219 54.0311 367.159 52.4284 365.489C52.2281 365.289 50.6922 356.007 49.0896 344.856C38.6723 272.873 38.7391 273.34 39.6072 272.806C41.4102 271.604 42.0112 272.272 42.4786 276.011ZM90.5583 306.594C90.959 308.263 92.8955 326.359 92.8955 328.563C92.8955 330.433 90.4916 332.169 89.4231 331.1C89.0892 330.766 88.2211 325.091 87.5534 318.547C86.8188 311.936 86.0843 305.058 85.8839 303.255L85.4833 299.917L87.8205 302.587C89.156 304.057 90.358 305.859 90.5583 306.594ZM144.448 331.768C145.182 332.436 145.65 335.107 146.251 342.318C147.252 355.339 147.386 354.338 144.648 354.338C141.843 354.338 141.91 354.538 140.975 342.786C140.04 330.833 140.04 330.967 141.843 330.967C142.711 330.967 143.847 331.367 144.448 331.768ZM197.335 332.77C197.469 333.437 197.803 337.444 198.07 341.651C198.27 345.857 198.871 355.339 199.405 362.685C201.275 389.662 201.342 393.067 200.207 393.067C198.938 393.067 198.804 392.065 197.335 373.035C196.801 365.155 195.799 352.735 195.132 345.457C194.531 338.178 194.13 332.102 194.33 331.968C195.065 331.167 197.001 331.768 197.335 332.77ZM71.7939 345.59C72.1946 346.191 74.7321 367.559 77.8706 396.74C78.8055 405.554 79.7404 414.034 79.9407 415.637L80.2746 418.508L78.6052 417.44C77.3364 416.572 76.869 415.703 76.869 414.168C76.869 409.961 73.9976 382.25 71.7939 365.289C70.5251 355.673 69.5235 347.193 69.5235 346.392C69.5235 344.989 71.1261 344.455 71.7939 345.59ZM457.166 373.502L456.698 401.414L455.029 403.884C451.223 409.493 451.423 410.562 451.623 379.311L451.757 350.665L454.228 348.128C455.563 346.792 456.899 345.657 457.166 345.657C457.366 345.657 457.366 358.211 457.166 373.502ZM395.397 417.773C395.731 456.569 395.664 459.574 394.596 460.776C393.928 461.511 393.327 461.978 393.127 461.778C392.659 461.244 391.991 376.641 392.526 376.173C392.793 375.906 393.46 375.772 394.061 375.839C394.93 376.04 395.13 380.78 395.397 417.773ZM177.302 391.197C177.77 395.337 179.439 415.169 180.107 424.518C180.507 430.794 180.507 430.995 179.038 431.462C178.237 431.729 177.302 431.663 177.035 431.329C176.568 430.861 175.098 416.037 173.295 393.201L172.828 387.725H174.898C176.835 387.725 176.968 387.859 177.302 391.197ZM124.815 414.568C125.283 415.036 125.616 416.705 125.616 418.374C125.616 420.111 126.418 429.125 127.286 438.474C129.823 464.048 130.024 467.52 128.889 466.853C127.152 465.851 125.616 464.315 125.95 463.915C126.084 463.648 125.817 460.309 125.283 456.503C124.815 452.63 124.214 446.353 123.947 442.48C123.68 438.607 123.079 431.529 122.545 426.788C121.276 415.102 121.343 413.767 122.812 413.767C123.48 413.767 124.348 414.101 124.815 414.568ZM156.401 459.508C156.601 460.977 157.002 466.452 157.269 471.66C157.736 481.677 157.536 482.411 154.798 480.341C153.997 479.74 153.463 477.203 152.661 469.59C151.259 455.835 151.192 456.369 153.797 456.636C155.733 456.837 156 457.104 156.401 459.508Z" fill="black"/>
<path d="M132.524 212.769C125.6 215.637 125.068 224.624 131.592 227.81C136.319 230.105 141.113 229.021 143.576 225.07C148.236 217.804 140.647 209.391 132.524 212.769Z" fill="black"/>
<path d="M177.717 219.219C171.428 222.972 171.428 232.005 177.717 235.758C183.941 239.384 192 234.613 192 227.361C192 220.364 183.745 215.657 177.717 219.219Z" fill="black"/>
</g>
</g>
<defs>
<clipPath id="clip0_541_10">
<rect width="512" height="512" fill="white"/>
</clipPath>
</defs>
</svg>
