<svg width="1920" height="1920" viewBox="0 0 1920 1920" fill="none" xmlns="http://www.w3.org/2000/svg">
<path fill-rule="evenodd" clip-rule="evenodd" d="M245.496 838.125C242.224 838.125 241.406 836.49 243.042 834.036L260.217 811.951C261.853 809.497 265.942 807.861 269.214 807.861H561.195C564.467 807.861 565.285 810.315 563.649 812.769L549.745 834.036C548.109 836.49 544.02 838.943 541.566 838.943L245.496 838.125Z" fill="#5C975E"/>
<path fill-rule="evenodd" clip-rule="evenodd" d="M121.997 913.377C118.725 913.377 117.907 911.741 119.543 909.287L136.718 887.202C138.354 884.749 142.443 883.113 145.715 883.113H518.666C521.937 883.113 523.573 885.566 522.755 888.02L516.212 907.651C515.394 910.923 512.123 912.559 508.851 912.559L121.997 913.377Z" fill="#5C975E"/>
<path fill-rule="evenodd" clip-rule="evenodd" d="M319.922 988.628C316.651 988.628 315.833 986.174 317.469 983.72L328.919 963.272C330.555 960.818 333.826 958.364 337.098 958.364H500.672C503.944 958.364 505.58 960.818 505.58 964.09L503.944 983.72C503.944 986.992 500.672 989.446 498.219 989.446L319.922 988.628Z" fill="#5C975E"/>
<path fill-rule="evenodd" clip-rule="evenodd" d="M1168.88 823.402C1117.35 836.49 1082.18 846.305 1031.47 859.392C1019.2 862.664 1018.39 863.482 1007.75 851.213C995.486 837.308 986.49 828.31 969.314 820.131C917.788 794.774 867.898 802.136 821.279 832.4C765.664 868.39 737.038 921.556 737.856 987.81C738.674 1053.25 783.657 1107.23 848.269 1116.23C903.885 1123.59 950.503 1103.96 987.308 1062.24C994.669 1053.25 1001.21 1043.43 1009.39 1031.98C979.947 1031.98 943.142 1031.98 851.541 1031.98C834.365 1031.98 830.276 1021.35 836.001 1007.44C846.633 982.084 866.262 939.551 877.713 918.284C880.166 913.377 885.891 905.197 898.159 905.197H1195.87C1194.23 927.282 1194.23 949.366 1190.96 971.451C1181.96 1030.34 1159.88 1084.33 1123.89 1131.77C1065.01 1209.47 988.126 1257.73 890.799 1270.82C810.647 1281.45 736.22 1265.91 670.79 1216.84C610.268 1171.03 575.917 1110.5 566.92 1035.25C556.288 946.095 582.46 865.936 636.44 795.592C694.509 719.523 771.389 671.264 865.444 654.087C942.325 640.182 1015.93 649.179 1082.18 694.166C1125.53 722.795 1156.61 762.056 1177.05 809.497C1181.96 816.859 1178.69 820.949 1168.88 823.402Z" fill="#5C975E"/>
<path d="M1439.59 1275.73C1365.17 1274.09 1297.28 1252.83 1240.03 1203.75C1191.78 1162.03 1161.51 1108.87 1151.7 1045.88C1136.98 953.456 1162.33 871.661 1217.95 798.864C1277.65 720.341 1349.63 679.443 1446.95 662.266C1530.38 647.543 1608.89 655.723 1680.05 703.982C1744.66 748.151 1784.74 807.861 1795.37 886.384C1809.27 996.807 1777.37 1086.78 1701.31 1163.67C1647.33 1218.47 1581.08 1252.83 1505.02 1268.37C1482.94 1272.46 1460.86 1273.27 1439.59 1275.73ZM1634.25 945.277C1633.43 934.643 1633.43 926.464 1631.79 918.284C1617.07 837.308 1542.64 791.502 1464.95 809.497C1388.88 826.674 1339.81 874.933 1321.82 951.82C1307.1 1015.62 1338.18 1080.24 1397.06 1106.41C1442.05 1126.04 1487.03 1123.59 1530.38 1101.5C1594.99 1067.97 1630.16 1015.62 1634.25 945.277Z" fill="#5C975E"/>
</svg>
