<svg fill="none" viewBox="0 0 1000 1000" xmlns="http://www.w3.org/2000/svg">
<g clip-path="url(#a)">
<g style="mix-blend-mode:lighten">
<path d="m555.89 996.13-2.121-65.586c-0.28-0.314-0.615-0.692-1.001-1.127-1.252-1.413-3.038-3.438-5.176-5.894-4.275-4.908-9.969-11.544-15.631-18.443-5.65-6.884-11.321-14.092-15.521-20.127-2.093-3.007-3.886-5.814-5.132-8.197-0.622-1.188-1.158-2.364-1.52-3.468-0.332-1.011-0.67-2.398-0.457-3.831 0.593-3.996 1.204-8.861 1.67-12.748 0.232-1.939 0.427-3.627 0.564-4.829 0.068-0.601 0.122-1.08 0.159-1.409l0.042-0.376 0.01-0.096 3e-3 -0.025 1e-3 -3e-3c-1e-3 1e-3 0 0 0 0v-3e-3c0-4e-3 1e-3 -9e-3 1e-3 -0.017 3e-3 -0.032 8e-3 -0.097 0.012-0.191 8e-3 -0.19 0.013-0.489-6e-3 -0.862-0.041-0.766-0.18-1.741-0.536-2.699-0.35-0.94-0.883-1.801-1.697-2.486-0.796-0.669-2.066-1.345-4.183-1.617-2.133-0.275-3.667-2.187-3.472-4.329l4.044-44.531c0.123-1.352 0.923-2.55 2.126-3.181l149.31-78.297c34.709-18.201 45.816-51.601 49.611-81.997 1.579-12.639 1.868-24.543 2.11-34.506 0.049-2.02 0.096-3.96 0.152-5.811 0.162-5.395 0.4-10.204 1.036-13.858 0.317-1.824 0.772-3.606 1.503-5.116 0.727-1.502 1.946-3.172 4.007-3.992 0.351-0.14 0.721-0.229 1.098-0.265l47.265-4.519c1.274-0.394 2.682-0.338 4.008 0.323 1.394 0.694 2.276 1.851 2.823 2.764 1.101 1.836 1.856 4.412 2.441 7.189 1.203 5.717 2.031 14.093 2.594 24.079 1.132 20.054 1.24 47.403 0.887 74.885-0.353 27.506-1.17 55.233-1.898 76.078-0.364 10.424-0.706 19.13-0.957 25.232-0.126 3.05-0.228 5.45-0.3 7.087-0.036 0.819-0.063 1.447-0.082 1.871l-0.022 0.481-3e-3 0.072v43.185c0.198 0.413 0.464 0.972 0.789 1.661 0.75 1.589 1.815 3.872 3.075 6.655 2.52 5.563 5.833 13.148 8.996 21.21 3.155 8.043 6.198 16.656 8.142 24.252 0.971 3.796 1.692 7.43 1.998 10.665 0.299 3.156 0.244 6.308-0.637 8.936-0.505 1.508-1.3 5.129-2.301 10.641-0.981 5.4-2.115 12.349-3.325 20.311-2.419 15.921-5.129 35.815-7.512 55.313-0.144 1.172-0.797 2.221-1.787 2.866-35.562 23.18-70.262 36.08-106.2 38.41-35.898 2.32-72.703-5.94-112.48-24.57l-3.99-1.568c-1.485-0.584-2.481-1.997-2.533-3.592z" fill="#fff" stroke="#0d1117" stroke-linejoin="round" stroke-width="8"/>
<path d="m561.5 1278.4 2.497-280.73c80.351 37.663 143.02 34.953 214.91-13.518-4.993 40.441-4.339 77.091-1.283 77.091l1.3 0.61c-0.946 3.97-1.752 7.86-2.404 11.67-11.746 68.55 15.029 164.91 27.706 204.89l-242.72-0.01z" fill="#fff"/>
<path d="m561.5 1278.4 2.497-280.73c80.351 37.663 143.02 34.953 214.91-13.518m-217.41 294.25 242.72 0.01c-12.677-39.98-39.452-136.34-27.706-204.89 0.652-3.81 1.458-7.7 2.404-11.67l-1.3-0.61c-3.056 0-3.71-36.65 1.283-77.091m-217.41 294.25v-349.44m217.41 55.194 13.316-87.051" stroke="#0d1117" stroke-linecap="round" stroke-linejoin="round" stroke-width="8"/>
<path d="m778.05 1042.6c5.947 0 83.033-160.65 98.307-182.75 15.273-22.095-102.66-78.559-102.66-78.559v44.189s27.508 56.465 22.571 71.195-24.16 145.92-18.213 145.92z" fill="#fff" stroke="#0d1117" stroke-width="8"/>
<path d="m878.18 864.78s3.239 57.663 166.86 94.357c159.12 35.684 120.52 105.57 118.27 319.58h-358.51c-12.657-40.01-39.39-136.46-27.662-205.08 14.099-82.496 101.05-208.86 101.05-208.86z" fill="#fff" stroke="#0d1117" stroke-linejoin="round" stroke-width="8"/>
<path d="m277.79 992.89c-163.78 36.752-129.88 56.572-129.88 285.46h413.59v-349.44s-48.563-51.759-47.361-59.863 2.468-19.64 2.468-19.64 1.275-10.839-9.873-12.275c-9.019-1.161-14.811 7.365-14.811 7.365s-6.158 14.241-12.19 23.109c-37.652 55.361-41.132 89.151-201.94 125.29z" fill="#fff" stroke="#0d1117" stroke-linejoin="round" stroke-width="8"/>
<path d="m659.24 715.3-149.31 78.297s-39.495 19.64-51.837 12.275-76.819-165.85-79.288-185.49c-2.468-19.64-44.077-33.218-44.077-33.218l9.817-53.797-12.343-110.47s69.314 39.289 118.49 44.189c46.527 4.637 75.546 1.231 118.48-17.184 19.433-8.336 29.559-14.688 49.368-22.095 37.345-13.965 113.42-44.642 150.58-13.445 5.038 4.23 9.36 9.598 12.773 16.299 10.169 19.967 16.321 42.778 16.609 65.158 0.224 17.362-9.634 40.007-14.571 54.737-2.587 7.717-14.811 14.73-14.811 14.73-14.81 7.365-39.495 0-51.837 4.91s14.844 106.89-58.04 145.11z" fill="#fff" stroke="#0d1117" stroke-linecap="round" stroke-linejoin="round" stroke-width="8"/>
<path d="m775.73 666.38s163.7-268.34 163.7-339.23c0-70.885-203.46-241.72-298.68-255.32-95.224-13.595-93.365-3.2583-153.04 0-135.55 7.4008-92.3 119.28-342.07 61.784 25.552 84.322 112.43 57.492 112.43 57.492-39.991 14.283-71.546 166.09-54.228 206.97 17.318 40.884 68.511 50.932 131.52 60.687l-3.165-35.872s69.314 39.289 118.49 44.189c46.527 4.637 75.546 1.232 118.48-17.184 19.433-8.335 29.559-14.687 49.369-22.095 9.243-3.457 20.859-7.937 33.671-12.25 45.967-15.473 107.32-28.786 129.68 15.104 10.169 19.967 16.321 42.778 16.609 65.158 0.224 17.362-9.634 40.007-14.571 54.737-2.587 7.717-14.811 14.73-14.811 14.73 6.695 1.977 7.591 27.866 6.62 101.09z" fill="#fff"/>
<path d="m332.2 422.9 3.165 35.872c-63.012-9.755-114.2-19.803-131.52-60.687-17.318-40.883 14.237-192.69 54.228-206.97 0 0-86.878 26.83-112.43-57.492 249.77 57.492 206.52-54.383 342.07-61.784 59.678-3.2583 57.819-13.595 153.04 0 95.225 13.595 298.68 184.43 298.68 255.32 0 70.884-163.7 339.23-163.7 339.23 0.971-73.227 0.075-99.116-6.62-101.09 0 0 12.224-7.013 14.811-14.73 4.937-14.73 14.795-37.375 14.571-54.737-0.288-22.38-6.44-45.191-16.609-65.158-22.353-43.89-83.709-30.577-129.68-15.104m-320.01 7.34s69.314 39.289 118.49 44.189c46.527 4.637 75.546 1.232 118.48-17.184m-236.97-27.005c-54.201-48.117-47.471-98.63-42.19-159.87m279.16 186.87c19.433-8.335 29.559-14.687 49.368-22.095 9.244-3.457 20.86-7.937 33.672-12.25m-83.04 34.345c-132.24-35.271-236.97-169.39-230.61-214.08m25.552 124.57c121.37-18.791 121.12 36.778 288.1 55.164" stroke="#0d1117" stroke-linecap="round" stroke-linejoin="round" stroke-width="8"/>
</g>
</g>
<defs>
<clipPath id="a">
<rect width="1e3" height="1e3" rx="500" fill="#fff"/>
</clipPath>
</defs>
</svg>
