<svg width="1000" height="1000" viewBox="0 0 1000 1000" fill="none" xmlns="http://www.w3.org/2000/svg">
<g clip-path="url(#clip0_329_57)">
<rect width="1000" height="1000" rx="500" fill="black"/>
<path d="M1162.15 -127.646C714.794 -196.018 130.252 710.972 -414.979 435.621C-436.242 378.096 -456.737 320.279 -478 262.864C164.594 384.78 456.609 -422.391 1099.17 -300.403C1120.5 -242.988 1140.82 -185.134 1162.15 -127.646Z" fill="#ED4C5C"/>
<path d="M1225.1 45.0735C847.229 -28.6311 70.8843 835.772 -351.959 608.377C-373.331 550.925 -393.607 493.072 -414.979 435.62C227.615 557.536 519.593 -249.672 1162.15 -127.646C1183.49 -70.2314 1203.8 -12.3781 1225.1 45.0735Z" fill="#FF8736"/>
<path d="M1288.12 217.867C920.298 152.453 237.991 1084.02 -288.973 781.133C-310.346 723.682 -330.695 665.828 -351.994 608.377C290.563 730.329 582.652 -76.8057 1225.1 45.1101C1246.47 102.598 1266.82 160.415 1288.12 217.867Z" fill="#FFCE31"/>
<path d="M1351.18 390.623C996.397 335.071 215.486 1333.41 -226.026 953.89C-247.362 896.475 -267.638 838.585 -288.974 781.134C353.474 903.159 645.526 95.878 1288.12 217.867C1309.42 275.318 1329.84 333.135 1351.18 390.623Z" fill="#83BF4F"/>
<path d="M1414.09 563.38C1010.1 496.395 293.12 1529.72 -163.042 1126.68C-184.377 1069.19 -204.836 1011.41 -226.062 953.926C416.495 1075.84 708.547 268.707 1351.14 390.659C1372.44 448.111 1392.83 505.891 1414.09 563.38Z" fill="#275FD9"/>
<path d="M1477 736.173C834.625 614.184 542.5 1421.39 -100.021 1299.4C-121.357 1241.99 -141.743 1184.13 -163.042 1126.68C479.516 1248.6 771.531 441.428 1414.09 563.38C1435.39 620.905 1455.81 678.721 1477 736.173Z" fill="#9028E0"/>
<g style="mix-blend-mode:lighten">
<path d="M555.89 996.13L553.769 930.544C553.489 930.23 553.154 929.852 552.768 929.417C551.516 928.004 549.73 925.979 547.592 923.523C543.317 918.615 537.623 911.979 531.961 905.08C526.311 898.196 520.64 890.988 516.44 884.953C514.347 881.946 512.554 879.139 511.308 876.756C510.686 875.568 510.15 874.392 509.788 873.288C509.456 872.277 509.118 870.89 509.331 869.457C509.924 865.461 510.535 860.596 511.001 856.709C511.233 854.77 511.428 853.082 511.565 851.88C511.633 851.279 511.687 850.8 511.724 850.471L511.766 850.095L511.776 849.999L511.779 849.974L511.78 849.971C511.779 849.972 511.78 849.971 511.78 849.971C511.78 849.97 511.78 849.969 511.78 849.968C511.78 849.964 511.781 849.959 511.781 849.951C511.784 849.919 511.789 849.854 511.793 849.76C511.801 849.57 511.806 849.271 511.787 848.898C511.746 848.132 511.607 847.157 511.251 846.199C510.901 845.259 510.368 844.398 509.554 843.713C508.758 843.044 507.488 842.368 505.371 842.096C503.238 841.821 501.704 839.909 501.899 837.767L505.943 793.236C506.066 791.884 506.866 790.686 508.069 790.055L657.378 711.758C692.087 693.557 703.194 660.157 706.989 629.761C708.568 617.122 708.857 605.218 709.099 595.255C709.148 593.235 709.195 591.295 709.251 589.444C709.413 584.049 709.651 579.24 710.287 575.586C710.604 573.762 711.059 571.98 711.79 570.47C712.517 568.968 713.736 567.298 715.797 566.478C716.148 566.338 716.518 566.249 716.895 566.213L764.16 561.694C765.434 561.3 766.842 561.356 768.168 562.017C769.562 562.711 770.444 563.868 770.991 564.781C772.092 566.617 772.847 569.193 773.432 571.97C774.635 577.687 775.463 586.063 776.026 596.049C777.158 616.103 777.266 643.452 776.913 670.934C776.56 698.44 775.743 726.167 775.015 747.012C774.651 757.436 774.309 766.142 774.058 772.244C773.932 775.294 773.83 777.694 773.758 779.331C773.722 780.15 773.695 780.778 773.676 781.202L773.654 781.683L773.651 781.755V824.94C773.849 825.353 774.115 825.912 774.44 826.601C775.19 828.19 776.255 830.473 777.515 833.256C780.035 838.819 783.348 846.404 786.511 854.466C789.666 862.509 792.709 871.122 794.653 878.718C795.624 882.514 796.345 886.148 796.651 889.383C796.95 892.539 796.895 895.691 796.014 898.319C795.509 899.827 794.714 903.448 793.713 908.96C792.732 914.36 791.598 921.309 790.388 929.271C787.969 945.192 785.259 965.086 782.876 984.584C782.732 985.756 782.079 986.805 781.089 987.45C745.527 1010.63 710.827 1023.53 674.888 1025.86C638.99 1028.18 602.185 1019.92 562.413 1001.29L558.423 999.722C556.938 999.138 555.942 997.725 555.89 996.13Z" fill="white" stroke="black" stroke-width="8" stroke-linejoin="round"/>
<path d="M561.499 1278.35L563.996 997.617C644.347 1035.28 707.02 1032.57 778.905 984.099C773.912 1024.54 774.566 1061.19 777.622 1061.19L778.922 1061.8C777.976 1065.77 777.17 1069.66 776.518 1073.47C764.772 1142.02 791.547 1238.38 804.224 1278.36L561.499 1278.35Z" fill="white"/>
<path d="M561.499 1278.35L563.996 997.617C644.347 1035.28 707.02 1032.57 778.905 984.099M561.499 1278.35L804.224 1278.36C791.547 1238.38 764.772 1142.02 776.518 1073.47C777.17 1069.66 777.976 1065.77 778.922 1061.8L777.622 1061.19C774.566 1061.19 773.912 1024.54 778.905 984.099M561.499 1278.35V928.905M778.905 984.099L792.221 897.048" stroke="black" stroke-width="8" stroke-linecap="round" stroke-linejoin="round"/>
<path d="M778.053 1042.63C784 1042.63 861.086 881.977 876.36 859.882C891.633 837.787 773.695 781.323 773.695 781.323V825.512C773.695 825.512 801.203 881.977 796.266 896.707C791.329 911.437 772.106 1042.63 778.053 1042.63Z" fill="white" stroke="black" stroke-width="8"/>
<path d="M878.175 864.78C878.175 864.78 881.414 922.443 1045.03 959.137C1204.15 994.821 1165.55 1064.71 1163.3 1278.72H804.788C792.131 1238.71 765.398 1142.26 777.126 1073.64C791.225 991.144 878.175 864.78 878.175 864.78Z" fill="white" stroke="black" stroke-width="8" stroke-linejoin="round"/>
<path d="M277.789 992.888C114.009 1029.64 147.905 1049.46 147.905 1278.35H561.499V928.905C561.499 928.905 512.936 877.146 514.138 869.042C515.34 860.938 516.606 849.402 516.606 849.402C516.606 849.402 517.881 838.563 506.733 837.127C497.714 835.966 491.922 844.492 491.922 844.492C491.922 844.492 485.764 858.733 479.732 867.601C442.08 922.962 438.6 956.752 277.789 992.888Z" fill="white" stroke="black" stroke-width="8" stroke-linejoin="round"/>
<path d="M659.235 715.301L509.926 793.598C509.926 793.598 470.431 813.238 458.089 805.873C445.747 798.508 381.27 640.024 378.801 620.385C376.333 600.745 334.724 587.167 334.724 587.167L344.541 533.37L332.198 422.896C332.198 422.896 401.512 462.185 450.684 467.085C497.211 471.722 526.23 468.316 569.169 449.901C588.602 441.565 598.728 435.213 618.537 427.806C655.882 413.841 731.959 383.164 769.112 414.361C774.15 418.591 778.472 423.959 781.885 430.66C792.054 450.627 798.206 473.438 798.494 495.818C798.718 513.18 788.86 535.825 783.923 550.555C781.336 558.272 769.112 565.285 769.112 565.285C754.302 572.65 729.617 565.285 717.275 570.195C704.933 575.105 732.119 677.081 659.235 715.301Z" fill="white" stroke="black" stroke-width="8" stroke-linecap="round" stroke-linejoin="round"/>
<path d="M775.732 666.378C775.732 666.378 939.435 398.036 939.435 327.152C939.435 256.267 735.978 85.4283 640.753 71.8334C545.529 58.2386 547.388 68.5751 487.71 71.8334C352.163 79.2342 395.41 191.109 145.638 133.617C171.19 217.939 258.068 191.109 258.068 191.109C218.077 205.392 186.522 357.198 203.84 398.081C221.158 438.965 272.351 449.013 335.363 458.768L332.198 422.896C332.198 422.896 401.512 462.185 450.684 467.085C497.211 471.722 526.23 468.317 569.169 449.901C588.602 441.566 598.728 435.214 618.538 427.806C627.781 424.349 639.397 419.869 652.209 415.556C698.176 400.083 759.532 386.77 781.885 430.66C792.054 450.627 798.206 473.438 798.494 495.818C798.718 513.18 788.86 535.825 783.923 550.555C781.336 558.272 769.112 565.285 769.112 565.285C775.807 567.262 776.703 593.151 775.732 666.378Z" fill="white"/>
<path d="M332.198 422.896L335.363 458.768C272.351 449.013 221.158 438.965 203.84 398.081C186.522 357.198 218.077 205.392 258.068 191.109C258.068 191.109 171.19 217.939 145.638 133.617C395.41 191.109 352.163 79.2342 487.71 71.8334C547.388 68.5751 545.529 58.2386 640.753 71.8334C735.978 85.4283 939.435 256.267 939.435 327.152C939.435 398.036 775.732 666.378 775.732 666.378C776.703 593.151 775.807 567.262 769.112 565.285C769.112 565.285 781.336 558.272 783.923 550.555C788.86 535.825 798.718 513.18 798.494 495.818C798.206 473.438 792.054 450.627 781.885 430.66C759.532 386.77 698.176 400.083 652.209 415.556M332.198 422.896C332.198 422.896 401.512 462.185 450.684 467.085C497.211 471.722 526.23 468.317 569.169 449.901M332.198 422.896C277.997 374.779 284.727 324.266 290.008 263.029M569.169 449.901C588.602 441.566 598.728 435.214 618.537 427.806C627.781 424.349 639.397 419.869 652.209 415.556M569.169 449.901C436.932 414.63 332.198 280.507 338.557 235.826M364.109 360.392C485.481 341.601 485.234 397.17 652.209 415.556" stroke="black" stroke-width="8" stroke-linecap="round" stroke-linejoin="round"/>
</g>
</g>
<defs>
<clipPath id="clip0_329_57">
<rect width="1000" height="1000" rx="500" fill="white"/>
</clipPath>
</defs>
</svg>
