<svg width="1000" height="1000" viewBox="0 0 1000 1000" fill="none" xmlns="http://www.w3.org/2000/svg">
<g clip-path="url(#clip0_2_72)">
<rect width="1000" height="1000" rx="500" fill="#8B1F1F"/>
<path d="M291.245 700.282C295.109 711.811 310.492 829.026 305.838 829.026H474.793V725.262C474.793 725.262 510.511 685.488 509.57 679.145C508.629 672.802 507.638 663.772 507.638 663.772C507.638 663.772 506.64 655.288 515.366 654.164V619.577C515.366 619.577 428.423 605.763 393.645 567.695C359.468 530.285 362.732 448.559 353.071 444.715C343.411 440.872 324.09 446.637 312.498 440.872C300.905 435.108 308.911 609.969 308.911 609.969V644.557C308.911 644.557 287.38 688.752 291.245 700.282Z" fill="white" stroke="#8B1F1F" stroke-width="6.12245"/>
<path d="M283.741 749.605L282.576 748.678L281.128 749.021L248.293 756.812L245.939 757.37V759.79V999V1002.06H249H587H590.061V999V790.95V788.187L587.312 787.905L473.358 776.22L472.514 776.133L471.747 776.493C437.087 792.737 405.875 798.472 375.558 794.018C345.213 789.56 315.435 774.844 283.741 749.605Z" fill="white" stroke="#8B1F1F" stroke-width="6.12245"/>
<path d="M305.838 829.025C301.183 829.025 240.509 688.752 228.554 671.458C216.599 654.164 308.911 609.969 308.911 609.969V644.556C308.911 644.556 287.381 688.752 291.245 700.281C295.109 711.811 310.493 829.025 305.838 829.025Z" fill="white" stroke="#8B1F1F" stroke-width="6.12245"/>
<path d="M227.486 675.301C227.486 675.301 224.947 720.394 96.6809 749.089C-28.0538 776.994 2.20711 831.649 3.96773 999.008H285.016C294.938 967.715 315.895 892.295 306.701 838.633C295.648 774.118 227.486 675.301 227.486 675.301Z" fill="white" stroke="#8B1F1F" stroke-width="6.12245"/>
<path d="M560.942 711.049C560.95 711.068 560.97 711.121 561.005 711.206C561.077 711.376 561.213 711.674 561.439 712.092C561.892 712.926 562.709 714.24 564.104 715.955C566.894 719.386 572.008 724.432 581.156 730.436C599.473 742.458 633.845 758.241 697.734 772.577C729.762 779.763 752.521 786.198 768.472 794.716C784.645 803.353 793.928 814.19 798.888 829.965C803.754 845.441 804.413 865.556 803.929 892.605C803.77 901.541 803.484 911.25 803.172 921.845C802.535 943.529 801.788 968.923 801.788 999V1002.06H798.726H475H471.939V999V725.483L477.85 724.365L475 725.483C477.85 724.365 477.85 724.365 477.85 724.366L477.852 724.372L477.861 724.394L477.895 724.481L478.031 724.826C478.151 725.13 478.329 725.582 478.562 726.172C479.027 727.351 479.711 729.08 480.583 731.277C482.329 735.671 484.829 741.936 487.848 749.419C493.888 764.386 502.001 784.217 510.301 803.686C518.608 823.17 527.077 842.234 533.833 855.694C537.226 862.454 540.12 867.664 542.301 870.799C542.559 871.17 542.796 871.495 543.012 871.779C546.457 863.824 549.049 851.138 550.921 835.954C552.987 819.199 554.13 799.859 554.732 781.483C555.333 763.117 555.394 745.764 555.303 732.999C555.258 726.618 555.175 721.386 555.104 717.752C555.068 715.935 555.035 714.517 555.011 713.555C554.999 713.074 554.99 712.707 554.983 712.46L554.975 712.182L554.973 712.112L554.973 712.095L554.973 712.091C554.973 712.091 554.973 712.09 558.033 712L554.973 712.09L560.913 711.097C560.953 711.083 560.953 711.082 560.953 711.081L560.95 711.073L560.946 711.06L560.942 711.049ZM560.942 711.049C560.939 711.039 560.938 711.037 560.941 711.044L560.942 711.049ZM544.529 873.435C544.53 873.435 544.519 873.427 544.496 873.415C544.518 873.43 544.529 873.436 544.529 873.435Z" fill="white" stroke="#8B1F1F" stroke-width="6.12245"/>
<path d="M544.348 875.142C561.737 842.476 561 711.5 561 711.5C561 711.5 538.152 692.996 532.755 677.223C530.038 669.28 526.959 659.929 526.959 659.929C526.959 659.929 522.426 653.255 515.367 654.164C506.64 655.288 507.638 663.772 507.638 663.772C507.638 663.772 508.63 672.801 509.57 679.144C510.511 685.487 472.5 726 472.5 726C472.5 726 538.284 886.535 544.348 875.142Z" fill="white" stroke="#8B1F1F" stroke-width="6.12245"/>
<path d="M393.645 567.695C428.423 605.763 515.367 619.577 515.367 619.577C515.367 619.577 546.28 634.949 555.94 629.184C565.601 623.42 619.699 511.97 621.631 496.597C623.563 481.225 654.477 475.46 654.477 475.46L644.816 415.892L654.477 329.423C654.477 329.423 600.224 360.175 561.737 364.01C525.319 367.64 502.605 364.974 468.997 350.56C453.786 344.036 445.86 339.064 430.355 333.266C397.161 320.853 327.142 306.631 304.769 350.56C296.81 366.188 297.266 377.238 297.041 394.755C296.866 408.345 297.041 417.814 300.905 429.343C302.93 435.384 312.498 440.872 312.498 440.872C324.09 446.637 343.411 440.872 353.072 444.716C362.732 448.559 359.469 530.285 393.645 567.695Z" fill="white" stroke="#8B1F1F" stroke-width="6.12245"/>
<path d="M42.8322 837.306C42.099 835.782 40.2697 835.142 38.7463 835.875C37.2229 836.608 36.5823 838.437 37.3155 839.961L42.8322 837.306ZM37.3155 839.961L113.993 999.28L119.51 996.625L42.8322 837.306L37.3155 839.961Z" fill="#8B1F1F"/>
<path d="M802 863.5C760.813 846.045 720.536 880.869 621.353 997.953" stroke="#8B1F1F" stroke-width="6.12245"/>
<path d="M306.702 515.813C306.702 515.813 167.591 296.756 179.184 254.482C190.776 212.208 372.081 75.4645 412.966 54.6407C453.851 33.8169 487.251 43.8488 532.755 54.6407C585.65 67.1854 615.241 120.394 654.477 121.895L754.945 125.738C803.572 121.587 805.83 105.738 824.5 85.3855C824.5 85.3855 807.334 123.817 787.79 141.111C776.376 151.211 769.637 158.081 754.945 162.248C741.158 166.157 718.235 162.248 718.235 162.248C742.28 180.241 745.285 198.757 754.945 241.031C764.605 283.305 772.683 297.669 754.945 325.579C740.287 348.643 720.613 352.185 695.05 362.089C678.339 368.563 650.612 373.618 650.612 373.618L654.477 329.422C654.477 329.422 600.224 360.175 561.737 364.01C525.319 367.64 502.605 364.974 468.997 350.56C453.785 344.036 445.86 339.064 430.355 333.265C397.161 320.853 327.142 306.631 304.769 350.56C296.81 366.188 297.266 377.238 297.041 394.755C296.866 408.345 297.041 417.814 300.905 429.343C302.93 435.384 312.498 440.872 312.498 440.872C307.257 442.42 305.941 458.497 306.702 515.813Z" fill="white"/>
<path d="M654.477 329.422L650.612 373.618C650.612 373.618 678.339 368.563 695.05 362.089C720.613 352.185 740.287 348.643 754.945 325.579C772.683 297.669 764.605 283.305 754.945 241.031C745.285 198.757 742.28 180.241 718.235 162.248C718.235 162.248 741.158 166.157 754.945 162.248C769.637 158.081 776.376 151.211 787.79 141.111C807.334 123.817 824.5 85.3855 824.5 85.3855C805.83 105.738 803.572 121.587 754.945 125.738C715.71 124.237 693.712 123.396 654.477 121.895C615.241 120.394 585.65 67.1854 532.755 54.6407C487.251 43.8488 453.851 33.8169 412.966 54.6407C372.081 75.4645 190.776 212.208 179.184 254.482C167.591 296.756 306.702 515.813 306.702 515.813C305.941 458.497 307.257 442.42 312.498 440.872C312.498 440.872 302.93 435.384 300.905 429.343C297.041 417.814 296.866 408.345 297.041 394.755C297.266 377.238 296.81 366.188 304.769 350.56C327.142 306.631 397.161 320.853 430.355 333.265M654.477 329.422C654.477 329.422 600.224 360.175 561.737 364.01C525.319 367.64 502.605 364.974 468.997 350.56M654.477 329.422C696.901 291.761 699.183 265.904 695.05 217.973M468.997 350.56C453.785 344.036 445.86 339.064 430.355 333.265M468.997 350.56C571.794 327.516 609.831 290.728 654.477 196.835M430.355 333.265C584.105 286.999 598.446 273.698 633.224 290.991" stroke="#8B1F1F" stroke-width="6.12245"/>
</g>
<defs>
<clipPath id="clip0_2_72">
<rect width="1000" height="1000" rx="500" fill="white"/>
</clipPath>
</defs>
</svg>
