<svg width="1920" height="1920" viewBox="0 0 1920 1920" fill="none" xmlns="http://www.w3.org/2000/svg">
<path d="M1706.67 0C1824.48 0.000197949 1920 95.5199 1920 213.333V1706.67C1920 1824.48 1824.48 1920 1706.67 1920H213.333C95.5199 1920 0.000197997 1824.48 0 1706.67V213.333C0.000173206 95.5199 95.5199 0.000173248 213.333 0H1706.67ZM1561.21 339.482C1499.55 299.441 1416.98 316.982 1376.77 378.724L796.113 1273.33L527.869 1025.41C473.783 975.395 389.4 978.754 339.421 1032.76C289.442 1086.83 292.749 1171.17 346.835 1221.13L731.359 1576.54C756.962 1600.27 789.499 1612 821.822 1612C857.72 1612 903.645 1596.96 933.782 1551.27C951.491 1524.29 1600.17 524.406 1600.52 523.853C1640.58 462.058 1622.98 379.524 1561.21 339.482Z" fill="#5C975E"/>
</svg>
