<svg width="1604" height="1600" viewBox="0 0 1604 1600" fill="none" xmlns="http://www.w3.org/2000/svg">
<path d="M519.607 1457.56V1340.4V1222.72H904.153L874.731 1255.24C858.214 1272.79 844.793 1291.88 844.793 1297.56C844.793 1304.27 877.312 1340.4 1022.87 1484.91L1009.97 1500.91C1002.74 1509.17 994.998 1516.4 991.901 1516.4C988.804 1516.91 944.93 1475.11 800.919 1331.11L767.368 1364.66L955.77 1553.04L919.638 1589.17L827.76 1497.82L733.301 1403.36C732.269 1401.82 724.01 1408.01 699.75 1431.75L780.272 1511.75C824.663 1555.62 859.246 1593.3 857.181 1595.36C855.117 1597.94 840.664 1599.49 824.663 1599.49C797.822 1600.01 794.209 1598.46 777.175 1580.39C766.852 1569.56 737.43 1539.62 665.167 1467.88L649.166 1479.23C640.391 1485.94 633.164 1492.65 633.164 1494.72C633.164 1497.3 653.811 1519.49 679.103 1545.3C704.396 1570.59 724.526 1593.3 722.978 1595.36C721.945 1597.94 707.493 1599.49 661.554 1599.49L519.607 1457.56Z" fill="#5c975e"/>
<path d="M901.572 1297.56L1036.29 1161.82L1171.53 1026.08L1174.62 1073.05C1176.69 1106.59 1179.79 1121.56 1185.46 1125.17C1189.59 1127.75 1248.44 1129.82 1443.55 1129.82V1181.43H1175.14V1222.72H1443.55V1274.33H1175.14V1320.78H1410L1363.54 1367.75L1175.14 1367.24L1177.72 1416.27H1243.79C1279.92 1416.27 1309.34 1417.82 1309.34 1418.85C1309.34 1420.4 1299.54 1431.75 1265.47 1465.82L1069.33 1465.3L901.572 1297.56Z" fill="#5c975e"/>
<path d="M135.062 1065.3L219.713 981.692L304.881 897.564L576.386 1168.53L529.414 1171.11C495.863 1173.17 481.411 1175.75 477.798 1181.43C475.217 1185.56 473.152 1244.91 472.636 1439.49H421.019V1173.69L379.726 1171.11V1439.49H328.109V1171.11H281.654L282.17 1405.95L235.198 1359.49V1171.11L186.162 1173.69L183.582 1307.88L137.126 1261.43L135.062 1065.3Z" fill="#5c975e"/>
<path d="M1301.09 758.727C1307.28 758.727 1345.48 724.662 1399.16 670.986C1447.68 622.47 1487.94 583.245 1489.49 583.245C1491.04 583.245 1499.81 589.438 1525.1 611.115L1335.15 802.081L1368.19 836.145L1556.59 647.244L1592.21 683.373L1500.84 775.759C1450.78 826.339 1408.45 868.661 1406.9 869.693C1405.35 871.241 1411.55 878.983 1435.29 903.241L1515.3 822.726C1559.17 778.855 1597.37 744.275 1599.43 746.856C1601.5 748.92 1603.56 763.372 1603.04 807.242L1468.84 941.434L1502.39 969.305L1548.85 922.854C1574.66 897.564 1597.37 878.467 1599.43 881.048C1601.5 883.112 1603.56 897.564 1603.04 941.434L1461.1 1083.88L1226.24 1083.37L1226.76 698.856L1258.76 728.791C1276.31 745.307 1295.41 758.727 1301.09 758.727Z" fill="#5c975e"/>
<path d="M0.341797 658.083L72.6054 586.858L144.869 515.633H379.726L379.209 900.144L347.207 870.725C329.657 854.209 311.075 840.79 305.397 840.79C299.72 840.79 259.458 876.919 117.512 1018.85L81.3802 987.885L271.33 796.92L237.779 763.372L49.894 951.757L13.7622 915.628L105.124 823.758C155.709 773.178 197.518 730.856 199.067 729.824C200.615 728.275 194.937 720.533 170.677 696.276L90.6713 776.791C46.797 820.661 9.11666 855.242 6.53582 852.661C4.47114 850.596 2.92264 836.145 2.92264 791.758L45.2485 749.952C68.9922 726.727 98.93 696.792 137.126 657.566L103.575 630.212L57.1203 676.147C31.8281 700.921 9.11666 720.533 7.05199 719.501C4.98731 718.469 2.40647 704.018 0.341797 658.083Z" fill="#5c975e"/>
<path d="M1125.07 420.666C1132.3 413.956 1133.33 394.86 1133.33 286.474V160.024H1184.95V425.827H1226.24V160.024H1277.86V428.408H1324.31V193.572L1370.77 240.023V428.408H1422.39V291.635L1468.84 338.086V534.213L1301.09 701.953L1027.52 428.408H1072.42C1104.94 428.408 1119.39 426.343 1125.07 420.666Z" fill="#5c975e"/>
<path d="M296.106 180.669C295.59 179.636 305.397 168.798 317.785 156.411L340.497 134.217H537.157L704.912 301.957L431.342 575.503V530.6C431.342 497.052 429.278 483.117 423.6 477.439C417.406 471.246 395.211 469.698 162.935 469.698V418.085H431.342V376.795H162.935V325.183H431.342V278.732H196.486L240.876 232.281H431.342L428.762 183.249H363.208C327.076 183.249 296.622 182.217 296.106 180.669Z" fill="#5c975e"/>
<path d="M826.211 87.7663C782.337 43.8959 747.754 6.21887 749.818 4.15438C751.883 2.08988 766.336 0.0253906 782.337 0.0253906C808.662 0.0253906 812.275 1.05764 829.308 19.122C839.116 29.9605 868.537 59.3796 942.349 129.056L957.834 118.734C966.609 113.056 973.319 106.863 973.319 104.798C973.836 102.734 953.189 80.0245 927.896 54.7345C902.604 28.9283 882.99 6.21887 884.022 4.15438C885.055 2.08988 898.991 0.0253906 944.93 0.0253906L1086.88 141.959V376.795H702.331L732.269 344.28C748.27 326.731 761.69 307.635 761.69 301.957C761.69 295.764 729.172 259.635 585.161 116.153L597.549 99.1211C604.259 89.8308 612.001 82.6051 614.582 82.6051C617.679 82.6051 661.554 124.411 805.565 268.409L839.632 234.861L650.714 46.9926L686.846 10.3479L778.724 102.218C829.257 152.231 871.548 194.518 873.178 196.147L873.183 196.152C874.215 197.701 882.474 192.023 906.734 167.765L826.211 87.7663Z" fill="#5c975e"/>
</svg>
