<svg viewBox="0 0 1527 1336" fill="none" xmlns="http://www.w3.org/2000/svg">
<path d="M337.405 302.828C337.405 302.828 338.677 483.795 431.614 670.949C527.094 851.068 658.733 966.81 767.332 1012.9C879.535 960.453 987.944 869.44 1047.1 771.328H739.059C659.347 705.299 596.633 595.723 582.221 469.067H1485.93C1441.36 672.708 1346.81 857.891 1256.71 975.816C1131.26 1139.68 961.746 1264.46 767.989 1335.57H765.149C441.024 1206.45 266.658 1003.09 151.594 773.596C77.7954 626.576 0.626709 359.576 0.626709 0.566895H1526.62C1526.87 101.645 1520.05 202.66 1506.27 302.828H337.405Z" fill="white"/>
</svg>
