<svg width="1000" height="1000" viewBox="0 0 1000 1000" fill="none" xmlns="http://www.w3.org/2000/svg">
<g clip-path="url(#clip0_377_258)">
<rect width="1000" height="1000" rx="500" fill="url(#paint0_linear_377_258)"/>
<rect width="1000" height="1000" fill="black" fill-opacity="0.4"/>
<path d="M257.409 504.622L305.812 452.781L340.125 416.375L363.436 391.065L557.56 183.151C560.34 180.17 563.346 177.082 566.537 174.117C576.382 164.97 587.988 157 600.158 157C604.886 157 609.377 158.225 613.495 160.638C619.297 164.008 622.915 168.74 625.021 174.129C631.115 189.721 624.549 210.812 621.594 220.307L618.213 231.154L605.557 271.759L581.502 348.937L557.446 426.115L713.185 426.146C731.607 426.146 742.418 431.946 748.733 438.282C752.188 441.749 754.297 445.376 755.57 448.301C756.154 449.646 756.726 451.221 757.19 453.006C758.347 457.456 758.838 463.208 757.19 469.937C755.994 474.825 753.669 480.229 749.653 486.024C747.773 488.737 745.522 491.536 742.843 494.408L694.438 546.249L664.5 577.625L636.843 607.932L455.177 802.492L455.176 802.494L455.16 802.511L442.699 815.857C439.911 818.845 436.898 821.942 433.699 824.913C423.864 834.048 412.27 842 400.07 842C395.358 842 390.875 840.775 386.772 838.377C380.977 835.009 377.36 830.283 375.252 824.902C369.138 809.291 375.723 788.164 378.682 778.673L390.233 741.611L390.234 741.608L442.813 572.915L287.067 572.885C275.857 572.885 267.466 570.737 261.19 567.628C257.156 565.628 253.996 563.232 251.525 560.752C248.066 557.283 245.956 553.652 244.682 550.722C241.584 543.608 238.831 529.987 250.6 513.005C252.48 510.292 254.73 507.494 257.409 504.622Z" fill="white"/>
</g>
<defs>
<linearGradient id="paint0_linear_377_258" x1="1000" y1="0" x2="0" y2="1000" gradientUnits="userSpaceOnUse">
<stop stop-color="#5C975E"/>
<stop offset="1" stop-color="#487C7E"/>
</linearGradient>
<clipPath id="clip0_377_258">
<rect width="1000" height="1000" rx="500" fill="white"/>
</clipPath>
</defs>
</svg>
