<svg width="1000" height="1000" viewBox="0 0 1000 1000" fill="none" xmlns="http://www.w3.org/2000/svg">
<g clip-path="url(#clip0_359_99)">
<rect width="1000" height="1000" rx="500" fill="#CD6161"/>
<g style="mix-blend-mode:lighten">
<path d="M510.927 793.598L660.236 715.301C733.119 677.081 705.933 575.105 718.276 570.195C728.683 566.054 747.868 570.643 762.507 567.766C763.091 569.554 764.288 571.076 765.874 572.067C766.019 572.439 766.189 572.955 766.37 573.648C767.171 576.698 767.847 581.755 768.311 589.585C769.23 605.117 769.219 629.598 768.733 666.272C768.685 669.876 771.054 673.067 774.517 674.065C775.204 674.263 775.901 674.365 776.59 674.378L774.695 781.323V825.512C774.695 825.512 802.203 881.977 797.266 896.707C794.751 904.209 788.532 941.919 783.819 977.122C781.191 975.647 777.945 975.772 775.433 977.466C761.719 986.713 748.434 994.198 735.372 1000H590.866C584.218 997.437 577.436 994.555 570.499 991.354V928.905C570.499 926.872 569.724 924.915 568.333 923.432L568.326 923.424L568.302 923.397L568.202 923.291C568.113 923.196 567.979 923.053 567.805 922.865C567.455 922.49 566.94 921.937 566.284 921.229C564.972 919.811 563.094 917.775 560.845 915.305C556.341 910.359 550.364 903.696 544.436 896.798C538.482 889.87 532.685 882.828 528.487 877.091C526.373 874.201 524.802 871.827 523.827 870.066C523.56 869.584 523.371 869.205 523.239 868.92C523.794 865.044 524.344 860.653 524.766 857.135C525.001 855.168 525.199 853.457 525.338 852.236C525.407 851.626 525.462 851.137 525.5 850.801L525.543 850.414C525.547 850.38 525.55 850.351 525.553 850.329L525.558 850.285L525.559 850.278V850.275L525.558 850.274C525.558 850.271 525.559 850.267 525.56 850.264C525.563 850.237 525.566 850.207 525.569 850.174C525.576 850.108 525.583 850.03 525.591 849.941C525.605 849.765 525.62 849.544 525.632 849.283C525.655 848.765 525.663 848.076 525.62 847.266C525.537 845.68 525.248 843.431 524.349 841.014C523.436 838.559 521.845 835.813 519.128 833.528C516.375 831.213 512.883 829.724 508.754 829.192L508.318 829.144L510.927 793.598Z" fill="white"/>
<path d="M778.201 1000C778.674 994.819 779.239 989.493 779.905 984.099C771.01 990.096 762.256 995.393 753.592 1000H778.201Z" fill="white"/>
<path d="M564.996 997.617L564.975 1000H570.177C568.458 999.224 566.731 998.43 564.996 997.617Z" fill="white"/>
<path d="M789.186 797.584C786.846 796.364 784.668 795.246 782.695 794.241V823.698L782.822 823.964C782.91 824.148 783.003 824.344 783.101 824.552C783.859 826.158 784.933 828.46 786.204 831.265C788.741 836.867 792.083 844.518 795.279 852.664C798.459 860.771 801.569 869.558 803.572 877.385C804.572 881.294 805.345 885.147 805.678 888.664C805.996 892.022 805.996 895.834 804.851 899.249C803.867 902.188 801.841 912.397 799.391 927.041C797.003 941.321 794.335 959.017 792.006 976.264C790.902 984.437 789.878 992.484 788.996 1000H794.844C801.71 986.921 809.556 971.621 817.584 955.904C819.68 951.8 821.788 947.668 823.893 943.541L823.927 943.476L823.941 943.448L824.02 943.294C832.868 925.95 841.663 908.712 849.298 894.061C858.617 876.178 866.532 861.509 870.72 855.421C870.703 855.209 870.609 854.637 870.127 853.636C868.994 851.287 866.472 848.065 862.273 844.106C853.988 836.294 841.259 827.513 827.579 819.14C814.005 810.832 799.915 803.176 789.186 797.584Z" fill="white"/>
<path d="M879.175 864.78C879.175 864.78 881.775 911.07 1000 947.093V1000H802.59C833.099 931.742 879.175 864.78 879.175 864.78Z" fill="white"/>
<path d="M562.499 928.905C562.499 928.905 513.936 877.146 515.138 869.042C516.34 860.938 517.606 849.402 517.606 849.402C517.606 849.402 518.881 838.563 507.733 837.127C498.714 835.966 492.922 844.492 492.922 844.492C492.922 844.492 486.764 858.733 480.732 867.601C443.08 922.962 439.6 956.753 278.789 992.888C267.993 995.311 258.055 997.66 248.911 1000H562.5L562.499 928.905Z" fill="white"/>
<path d="M696.425 412C724.446 406.545 749.402 407.417 764.968 420.487C769.153 424.001 772.813 428.51 775.757 434.291C785.426 453.276 791.225 474.888 791.495 495.921C791.59 503.271 789.514 512.267 786.515 521.765C783.388 531.671 780.104 539.76 777.338 548.012C776.836 549.51 774.797 551.956 771.535 554.58C770.097 555.736 768.708 556.702 767.676 557.379C767.165 557.714 766.752 557.971 766.479 558.137C766.424 558.171 766.375 558.2 766.332 558.225C761.03 560.765 753.312 560.979 743.525 560.665C738.953 560.518 733.875 560.271 729.285 560.394C724.734 560.517 719.736 561.004 715.318 562.761C711.968 564.094 710.148 566.748 709.19 568.727C708.225 570.72 707.691 572.919 707.346 574.9C706.654 578.875 706.413 583.958 706.252 589.324C705.919 600.431 705.888 614.305 704.02 629.265C700.285 659.173 689.496 690.923 656.521 708.215L507.312 786.461L507.283 786.475C507.218 786.507 507.117 786.556 506.983 786.622C506.714 786.753 506.308 786.948 505.783 787.197C504.73 787.695 503.2 788.405 501.322 789.238C497.551 790.909 492.438 793.044 486.997 794.945C481.502 796.865 475.946 798.448 471.223 799.148C466.723 799.815 464.389 799.451 463.501 799.139C463.344 798.961 463.057 798.626 462.644 798.062C461.729 796.814 460.563 794.994 459.158 792.575C456.358 787.756 452.919 781.095 449.045 773.068C441.313 757.048 432.081 736.078 423.124 714.647C414.172 693.228 405.536 671.448 398.995 653.833C395.723 645.02 392.996 637.302 391.02 631.219C388.961 624.883 387.939 620.969 387.74 619.387C386.792 611.847 382.24 605.722 377.382 601.108C372.432 596.407 366.335 592.483 360.671 589.389C354.955 586.268 349.37 583.825 345.242 582.17C345.093 582.11 344.945 582.052 344.8 581.995L353.411 534.806C353.551 534.04 353.578 533.256 353.492 532.481L342.836 437.097C350.059 440.802 359.735 445.566 370.752 450.464C394.353 460.954 424.958 472.461 450.891 475.046C498.604 479.801 529.002 476.262 573.323 457.253C583.233 453.002 590.83 449.229 598.163 445.722C605.502 442.213 612.749 438.885 622.34 435.298C641.232 428.234 668.89 417.36 696.425 412Z" fill="white"/>
<path d="M488.711 71.8334C548.389 68.575 546.529 58.2386 641.754 71.8334C736.979 85.4284 940.435 256.268 940.435 327.152C940.434 398.028 776.774 666.31 776.732 666.378C777.704 593.151 776.807 567.262 770.112 565.285C770.112 565.285 782.336 558.273 784.923 550.555C789.86 535.825 799.717 513.18 799.494 495.818C799.206 473.438 793.054 450.627 782.886 430.661C761.142 387.967 702.493 399.4 657.002 414.297C656.518 412.838 655.225 411.754 653.646 411.581C583.304 403.835 542.92 389.472 510.438 376.89C478.318 364.448 453.249 353.43 414.713 352.615C391.42 329.869 372.818 306.396 360.429 285.716C354.133 275.209 349.485 265.497 346.626 257.028C343.745 248.495 342.786 241.532 343.518 236.389C343.829 234.202 342.307 232.177 340.12 231.866C337.933 231.555 335.908 233.075 335.597 235.262C334.615 242.164 335.978 250.497 339.047 259.587C342.138 268.741 347.067 278.98 353.566 289.829C365.319 309.444 382.35 331.294 403.416 352.663C391.799 352.995 378.983 354.196 364.497 356.439C362.314 356.777 360.818 358.821 361.156 361.004C361.494 363.187 363.538 364.683 365.721 364.345C383.294 361.624 398.225 360.488 411.424 360.57C450.201 397.873 501.26 432.906 558.028 450.555C521.366 464.855 494.083 467.291 452.081 463.105C428.169 460.722 399.039 449.904 375.627 439.497C363.978 434.319 353.85 429.292 346.636 425.559C343.03 423.693 340.155 422.152 338.186 421.081C337.201 420.545 336.443 420.126 335.934 419.842C335.779 419.756 335.648 419.682 335.54 419.622C309.345 396.258 298.006 372.511 293.742 347.217C289.414 321.539 292.335 294.198 294.993 263.372C295.183 261.172 293.553 259.233 291.352 259.043C289.151 258.854 287.212 260.484 287.022 262.685C284.4 293.096 281.317 321.631 285.854 348.547C290.438 375.747 302.762 401.225 330.543 425.887C330.753 426.073 330.982 426.237 331.227 426.375L333.199 422.896L331.229 426.376L331.231 426.378C331.234 426.38 331.237 426.383 331.242 426.385C331.252 426.391 331.266 426.398 331.284 426.408C331.32 426.428 331.372 426.458 331.44 426.497C331.578 426.574 331.781 426.687 332.046 426.834C332.438 427.052 332.967 427.342 333.623 427.701L336.363 458.768C273.352 449.014 222.158 438.965 204.84 398.081C187.522 357.198 219.077 205.392 259.068 191.109C259.068 191.109 172.191 217.939 146.639 133.617C396.41 191.109 353.164 79.2342 488.711 71.8334Z" fill="white"/>
<path d="M423.558 361.008C455.471 363.154 477.9 372.865 507.549 384.35C537.739 396.044 574.827 409.297 635.796 417.462C629.274 419.854 623.308 422.125 618.137 424.059C608.075 427.822 600.473 431.318 592.987 434.897C585.832 438.318 578.86 441.775 569.862 445.675C514.005 430.47 463.033 397.385 423.558 361.008Z" fill="white"/>
</g>
</g>
<defs>
<clipPath id="clip0_359_99">
<rect width="1000" height="1000" rx="500" fill="white"/>
</clipPath>
</defs>
</svg>
