<svg width="669" height="557" viewBox="0 0 669 557" fill="none" xmlns="http://www.w3.org/2000/svg">
<path d="M561.175 63.4364C408.112 40.0364 208.112 350.449 21.5625 256.211C14.2875 236.524 7.275 216.736 0 197.086C219.862 238.811 319.775 -37.4386 539.625 4.31137C546.925 23.9614 553.875 43.7614 561.175 63.4364Z" fill="#ED4C5C"/>
<path d="M582.712 122.549C453.425 97.3237 187.8 393.161 43.125 315.336C35.8125 295.674 28.875 275.874 21.5625 256.211C241.425 297.936 341.325 21.6737 561.175 63.4362C568.475 83.0862 575.425 102.886 582.712 122.549Z" fill="#FF8736"/>
<path d="M604.275 181.686C478.425 159.299 244.975 478.124 64.675 374.461C57.3625 354.799 50.4 334.999 43.1125 315.336C262.963 357.074 362.9 80.8363 582.713 122.561C590.025 142.236 596.988 162.024 604.275 181.686Z" fill="#FFCE31"/>
<path d="M625.85 240.811C504.463 221.799 237.275 563.474 86.2126 433.586C78.9126 413.936 71.975 394.124 64.675 374.461C284.488 416.224 384.413 139.936 604.275 181.686C611.563 201.349 618.55 221.136 625.85 240.811Z" fill="#83BF4F"/>
<path d="M647.375 299.936C509.15 277.011 263.837 630.661 107.762 492.724C100.462 473.049 93.4625 453.274 86.2 433.599C306.05 475.324 405.975 199.086 625.837 240.824C633.125 260.486 640.1 280.261 647.375 299.936Z" fill="#275FD9"/>
<path d="M668.9 359.074C449.112 317.324 349.162 593.586 129.325 551.836C122.025 532.186 115.05 512.386 107.762 492.724C327.612 534.449 427.525 258.199 647.375 299.936C654.662 319.624 661.65 339.411 668.9 359.074Z" fill="#9028E0"/>
</svg>
