<svg width="256" height="246" viewBox="0 0 256 246" fill="none" xmlns="http://www.w3.org/2000/svg">
<path d="M48.057 246C48.057 170.671 48.057 121.292 48.057 57.167L0 0H155.429C173.891 0 190.046 3.323 203.893 9.97C217.739 16.616 228.509 26.186 236.202 38.678C243.894 51.17 247.741 66.145 247.741 83.602C247.741 101.219 243.773 116.073 235.837 128.165C227.983 140.257 216.93 149.386 202.678 155.552C188.507 161.718 171.948 164.801 153 164.801H88.868V112.91H139.396C147.332 112.91 154.093 111.949 159.68 110.027C165.349 108.025 169.681 104.862 172.677 100.538C175.754 96.214 177.292 90.568 177.292 83.602C177.292 76.555 175.754 70.829 172.677 66.425C169.681 61.94 165.349 58.657 159.68 56.575C154.093 54.413 147.332 53.332 139.396 53.332H115.59V246H48.057ZM193.811 133.09L256 246H182.637L121.906 133.09H193.811Z" fill="white"/>
</svg>
