<svg width="1920" height="1920" viewBox="0 0 1920 1920" fill="none" xmlns="http://www.w3.org/2000/svg">
<rect width="1920" height="1920" fill="#150E2A"/>
<path d="M1659.91 1165.25V754H1760V1165.25H1659.91Z" fill="white"/>
<path fill-rule="evenodd" clip-rule="evenodd" d="M1293.45 1166H1393.54L1393.54 1010.02H1417.55C1467.24 1010.12 1491.1 1008.84 1521.17 1002.41C1547.65 995.956 1571.13 980.652 1587.73 959.026C1604.34 937.399 1613.06 910.747 1612.47 883.48C1612.47 812 1562.13 754 1461.44 754H1293.45V1166ZM1455.58 939.145C1493.05 939.145 1510.6 919.804 1510.6 887.584C1510.6 857.11 1493.05 837.191 1455.59 837.191H1393.54V939.145H1455.58Z" fill="white"/>
<path d="M935.824 1165.25L1037.68 854.729L1140.1 1165.25H1246.05L1100.29 754H975.015L829.257 1165.25H935.824Z" fill="white"/>
<path d="M591.405 754L693.258 1064.52L795.678 754H901.631L755.874 1165.25H630.596L484.838 754H591.405Z" fill="#FF005C"/>
<path fill-rule="evenodd" clip-rule="evenodd" d="M161.953 1165.25H262.051V1010.02H286.053L371.528 1165.28H484.504L389.674 1002.41C416.15 995.956 439.633 980.652 456.235 959.026C472.837 937.399 481.564 910.747 480.97 883.48C480.97 812 430.632 754 329.945 754H162.063H161.953H102L162.063 837.388L161.953 1165.25ZM324.078 939.145C361.548 939.145 379.105 919.804 379.105 887.584C379.105 857.11 361.548 837.191 324.089 837.191H262.039V939.145H324.078Z" fill="#FF005C"/>
</svg>
