<svg width="1920" height="1920" viewBox="0 0 1920 1920" fill="none" xmlns="http://www.w3.org/2000/svg">
<rect width="1920" height="1920" fill="#59FDCF"/>
<path d="M1791.17 688.942C1747.58 611.606 1633.96 478.556 1362.58 456.44C1142.33 438.584 927.795 523.532 847.056 555.541C838.991 558.749 832.307 561.4 827.109 563.34C789.765 577.359 658.06 649.516 567.717 699.851C558.629 683.182 540.201 651.981 524.12 641.253C518.612 637.56 502.048 626.564 377.597 645.596C358.392 635.724 326.769 628.204 316.311 625.883C305.006 623.418 293.64 630.515 291.103 641.924C288.586 653.312 295.765 664.597 307.152 667.125C327.532 671.653 354.514 679.916 360.682 684.537C365.241 687.952 370.996 689.396 376.628 688.498C426.321 680.7 487.03 674.542 501.965 677.42C508.038 682.86 520.348 701.277 530.826 720.468C509.709 732.309 493.288 741.577 484.947 746.297C242.812 723.551 140.516 828.15 137.009 831.874C133.729 834.99 57.1777 908.901 95.9178 982.089C134.472 1054.93 253.477 1073.04 320.993 1077.35C417.1 1083.51 514.961 1054.97 581.982 1000.98C591.079 993.653 592.503 980.357 585.18 971.269C577.877 962.191 564.593 960.705 555.496 968.071C497.365 1014.88 408.643 1040.65 323.675 1035.18C286.812 1032.83 164.094 1020.61 133.255 962.325C109.532 917.483 165.559 863.038 166.879 861.748C167.073 861.543 171.763 856.912 180.769 850.196C186.544 857.956 195.705 863.051 206.121 863.051C223.62 863.051 237.806 848.863 237.806 831.361C237.806 827.133 236.943 823.117 235.441 819.429C286.798 797.174 368.594 776.795 487.361 788.993C491.672 789.385 496.128 788.529 499.944 786.363C599.31 730.009 798.641 619.158 841.961 602.911C847.325 600.889 854.256 598.145 862.631 594.824C940.853 563.794 1148.66 481.373 1359.15 498.549C1611.07 519.087 1714.91 639.655 1754.37 709.687C1804.19 798.112 1840.58 1048.82 1624.23 1217.87C1484.74 1326.87 1354.7 1443.26 1269.05 1522.04C1290.19 1491.37 1316.33 1458.66 1347.23 1429.44C1431.39 1349.85 1629.94 1155.29 1655.73 1067.98C1659.35 1055.7 1663.02 1042.19 1666.44 1027.86C1667.58 1028.05 1668.61 1028.54 1669.8 1028.54C1681.46 1028.54 1690.92 1019.08 1690.92 1007.41C1690.92 997.535 1684 989.616 1674.84 987.305C1691.16 894.512 1689.14 783.715 1605.81 733.99C1540.83 695.237 1493.18 696.595 1464.5 704.604C1456.45 693.001 1446.11 679.78 1442.1 674.737C1434.86 665.618 1421.53 664.061 1412.42 671.333C1403.28 678.596 1401.75 691.882 1409.01 701.021C1414.77 708.257 1421.11 716.615 1426.27 723.747C1414.01 733.091 1403.78 744.708 1396.72 758.18C1392.01 767.165 1384.16 777.48 1375.84 788.394C1353.25 818.082 1325.43 854.63 1322.41 908.034C1298.14 930.243 1233.98 990.321 1218.98 1018.66C1213.52 1028.96 1217.46 1041.75 1227.77 1047.21C1238.11 1052.7 1250.88 1048.72 1256.32 1038.42C1266.57 1019.04 1323.78 963.666 1357.42 933.317C1361.86 929.304 1364.39 923.61 1364.39 917.627C1364.39 873.198 1388.34 841.746 1409.47 813.987C1418.89 801.608 1427.78 789.921 1434.14 777.79C1437.97 770.476 1449.69 752.671 1475.66 745.327C1505.35 736.981 1542.81 745.605 1584.15 770.28C1672.72 823.126 1635.39 987.701 1615.21 1056.01C1596.52 1119.29 1449.53 1274.55 1318.21 1398.74C1219.23 1492.32 1167.48 1615.59 1165.33 1620.79C1161.6 1629.82 1164.53 1640.24 1172.45 1645.98C1176.16 1648.67 1180.51 1650 1184.84 1650C1189.75 1650 1194.66 1648.29 1198.6 1644.91C1203.37 1640.82 1214.65 1630.29 1231.38 1614.67C1302.3 1548.42 1468.36 1393.28 1650.22 1251.17C1888.02 1065.38 1846.58 787.28 1791.17 688.942Z" fill="black"/>
<path d="M1212.75 991.868C1210.98 980.336 1200.27 972.496 1188.66 974.208C1162.4 978.252 1121.12 1005.62 1113.1 1011.07C1103.47 1017.63 1100.95 1030.77 1107.51 1040.41C1111.59 1046.43 1118.24 1049.67 1125 1049.67C1129.09 1049.67 1133.21 1048.48 1136.86 1046.01C1153.49 1034.7 1182.58 1017.89 1195.1 1015.97C1206.63 1014.19 1214.53 1003.4 1212.75 991.868Z" fill="black"/>
<path d="M1124.59 973.331C1154.64 963.366 1209.04 947.553 1227.09 947.553C1232.81 947.553 1238.25 945.242 1242.23 941.147C1246.21 937.062 1248.36 931.533 1248.21 925.828C1246.94 880.976 1251.87 800.432 1270.49 775.252C1299.52 735.96 1349.83 678.637 1350.32 678.059C1358.02 669.291 1357.17 655.942 1348.41 648.247C1339.62 640.541 1326.27 641.377 1318.6 650.166C1316.49 652.569 1266.59 709.408 1236.52 750.144C1218.11 775.04 1210.71 822.162 1207.74 861.77L1158.13 863.502C1146.48 863.914 1137.36 873.693 1137.77 885.35C1138.16 896.769 1147.53 905.744 1158.85 905.744C1159.1 905.744 1159.37 905.744 1159.62 905.734L1205.87 904.119C1205.86 905.214 1205.81 906.588 1205.8 907.621C1170.16 913.903 1118.3 930.903 1111.31 933.224C1100.23 936.897 1094.22 948.852 1097.9 959.931C1100.85 968.792 1109.08 974.414 1117.95 974.414C1120.15 974.414 1122.38 974.064 1124.59 973.331Z" fill="black"/>
<path d="M1190.13 792.18C1199.59 785.372 1201.76 772.168 1194.93 762.698C1188.12 753.218 1174.94 751.041 1165.45 757.87C1121.06 789.787 829.811 905.372 721.327 947.212C715.014 949.646 710.249 954.959 708.496 961.499C706.763 968.029 708.269 975.013 712.539 980.253C749.319 1025.49 790.163 1083.57 792.288 1097.12C791.649 1111.93 758.561 1174.31 744.431 1200.95C734.529 1219.61 729.269 1229.62 726.917 1235.46C719.47 1254.08 710.641 1287.59 710.27 1289.02C707.3 1300.3 714.045 1311.85 725.329 1314.82C727.123 1315.29 728.939 1315.51 730.713 1315.51C740.078 1315.51 748.639 1309.24 751.114 1299.76C751.197 1299.43 759.654 1267.36 766.152 1251.16C767.761 1247.15 774.878 1233.73 781.747 1220.75C816.753 1154.76 834.535 1117.53 834.535 1097.2C834.535 1072.58 795.588 1017.56 763.346 976.22C853.822 940.941 1140.47 827.872 1190.13 792.18Z" fill="black"/>
<path d="M698.925 1221.46C688.817 1215.67 675.883 1219.19 670.107 1229.31C659.297 1248.24 615.813 1302.22 599.971 1321.43C592.544 1330.42 593.823 1343.74 602.817 1351.17C606.757 1354.42 611.522 1356 616.246 1356C622.352 1356 628.376 1353.38 632.563 1348.31C638.628 1340.97 692.22 1275.76 706.784 1250.29C712.58 1240.16 709.053 1227.26 698.925 1221.46Z" fill="black"/>
<path d="M636.709 1221.52C629.531 1212.41 616.225 1210.89 607.046 1218.01C602.776 1221.34 582.065 1231.55 565.397 1239C554.753 1243.76 549.967 1256.26 554.733 1266.91C558.239 1274.76 565.954 1279.42 574.041 1279.42C576.908 1279.42 579.837 1278.83 582.643 1277.58C594.628 1272.21 623.569 1258.9 633.43 1251.02C642.485 1243.76 643.888 1230.64 636.709 1221.52Z" fill="black"/>
<path d="M605.705 1195.79H658.514C665.775 1195.79 672.541 1192.05 676.398 1185.89C698.285 1151.05 727 1109.55 734.859 1103.31C740.037 1099.28 743.049 1093.07 743.007 1086.51C742.966 1079.95 739.892 1073.78 734.653 1069.81C695.005 1039.69 648.942 999.574 644.136 989.857C642.196 978.345 631.325 970.577 619.815 972.496C608.325 974.414 600.548 985.308 602.466 996.809C605.416 1014.5 635.203 1045.65 691.065 1089.54C675.903 1108.94 657.75 1136.56 646.9 1153.53H605.705C594.03 1153.53 584.582 1162.99 584.582 1174.66C584.582 1186.33 594.03 1195.79 605.705 1195.79Z" fill="black"/>
<path d="M253.621 738.054C254.343 738.054 255.065 738.023 255.808 737.941C285.306 734.918 322.066 732.556 328.811 733.722C340.095 736.95 351.73 730.452 354.947 719.218C358.145 708.005 351.647 696.307 340.446 693.099C326.934 689.221 284.646 692.511 251.476 695.915C239.883 697.101 231.446 707.479 232.622 719.084C233.736 729.957 242.915 738.054 253.621 738.054Z" fill="black"/>
<path d="M318.428 998.116C335.927 998.116 350.113 983.928 350.113 966.426C350.113 948.925 335.927 934.737 318.428 934.737C300.928 934.737 286.743 948.925 286.743 966.426C286.743 983.928 300.928 998.116 318.428 998.116Z" fill="black"/>
<path d="M519.1 895.125C530.766 895.125 540.223 885.667 540.223 873.999C540.223 862.331 530.766 852.873 519.1 852.873C507.434 852.873 497.976 862.331 497.976 873.999C497.976 885.667 507.434 895.125 519.1 895.125Z" fill="black"/>
<path d="M659.042 876.64C670.708 876.64 680.166 867.181 680.166 855.514C680.166 843.846 670.708 834.387 659.042 834.387C647.376 834.387 637.919 843.846 637.919 855.514C637.919 867.181 647.376 876.64 659.042 876.64Z" fill="black"/>
<path d="M610.986 825.2C622.652 825.2 632.109 815.741 632.109 804.074C632.109 792.406 622.652 782.948 610.986 782.948C599.32 782.948 589.863 792.406 589.863 804.074C589.863 815.741 599.32 825.2 610.986 825.2Z" fill="black"/>
<path d="M415.595 856.889C427.261 856.889 436.718 847.431 436.718 835.763C436.718 824.095 427.261 814.637 415.595 814.637C403.929 814.637 394.471 824.095 394.471 835.763C394.471 847.431 403.929 856.889 415.595 856.889Z" fill="black"/>
<path d="M711.322 777.666C722.988 777.666 732.445 768.207 732.445 756.54C732.445 744.872 722.988 735.413 711.322 735.413C699.656 735.413 690.199 744.872 690.199 756.54C690.199 768.207 699.656 777.666 711.322 777.666Z" fill="black"/>
<path d="M790.535 732.773C802.201 732.773 811.658 723.314 811.658 711.646C811.658 699.979 802.201 690.52 790.535 690.52C778.869 690.52 769.411 699.979 769.411 711.646C769.411 723.314 778.869 732.773 790.535 732.773Z" fill="black"/>
<path d="M893.511 761.821C905.177 761.821 914.635 752.363 914.635 740.695C914.635 729.027 905.177 719.569 893.511 719.569C881.845 719.569 872.388 729.027 872.388 740.695C872.388 752.363 881.845 761.821 893.511 761.821Z" fill="black"/>
<path d="M938.398 685.239C950.065 685.239 959.522 675.78 959.522 664.112C959.522 652.445 950.065 642.986 938.398 642.986C926.732 642.986 917.275 652.445 917.275 664.112C917.275 675.78 926.732 685.239 938.398 685.239Z" fill="black"/>
<path d="M1051.06 750.377C1062.72 750.377 1072.18 740.919 1072.18 729.251C1072.18 717.583 1062.72 708.125 1051.06 708.125C1039.39 708.125 1029.93 717.583 1029.93 729.251C1029.93 740.919 1039.39 750.377 1051.06 750.377Z" fill="black"/>
<path d="M1040.49 651.788C1052.16 651.788 1061.62 642.329 1061.62 630.662C1061.62 618.994 1052.16 609.535 1040.49 609.535C1028.83 609.535 1019.37 618.994 1019.37 630.662C1019.37 642.329 1028.83 651.788 1040.49 651.788Z" fill="black"/>
<path d="M1136.43 600.734C1148.1 600.734 1157.55 591.275 1157.55 579.607C1157.55 567.94 1148.1 558.481 1136.43 558.481C1124.76 558.481 1115.31 567.94 1115.31 579.607C1115.31 591.275 1124.76 600.734 1136.43 600.734Z" fill="black"/>
<path d="M1185.72 674.676C1197.38 674.676 1206.84 665.217 1206.84 653.549C1206.84 641.882 1197.38 632.423 1185.72 632.423C1174.05 632.423 1164.59 641.882 1164.59 653.549C1164.59 665.217 1174.05 674.676 1185.72 674.676Z" fill="black"/>
<path d="M1260.53 608.656C1272.2 608.656 1281.65 599.197 1281.65 587.53C1281.65 575.862 1272.2 566.404 1260.53 566.404C1248.86 566.404 1239.41 575.862 1239.41 587.53C1239.41 599.197 1248.86 608.656 1260.53 608.656Z" fill="black"/>
<path d="M1397.83 576.967C1409.5 576.967 1418.96 567.508 1418.96 555.84C1418.96 544.173 1409.5 534.714 1397.83 534.714C1386.17 534.714 1376.71 544.173 1376.71 555.84C1376.71 567.508 1386.17 576.967 1397.83 576.967Z" fill="black"/>
<path d="M1490.25 624.501C1501.91 624.501 1511.37 615.042 1511.37 603.374C1511.37 591.707 1501.91 582.248 1490.25 582.248C1478.58 582.248 1469.12 591.707 1469.12 603.374C1469.12 615.042 1478.58 624.501 1490.25 624.501Z" fill="black"/>
<path d="M1603.78 645.627C1615.45 645.627 1624.91 636.168 1624.91 624.501C1624.91 612.833 1615.45 603.374 1603.78 603.374C1592.12 603.374 1582.66 612.833 1582.66 624.501C1582.66 636.168 1592.12 645.627 1603.78 645.627Z" fill="black"/>
<path d="M1675.08 730.132C1686.74 730.132 1696.2 720.673 1696.2 709.006C1696.2 697.338 1686.74 687.879 1675.08 687.879C1663.41 687.879 1653.95 697.338 1653.95 709.006C1653.95 720.673 1663.41 730.132 1675.08 730.132Z" fill="black"/>
<path d="M1730.53 848.967C1742.19 848.967 1751.65 839.508 1751.65 827.841C1751.65 816.173 1742.19 806.715 1730.53 806.715C1718.86 806.715 1709.4 816.173 1709.4 827.841C1709.4 839.508 1718.86 848.967 1730.53 848.967Z" fill="black"/>
<path d="M1754.29 967.802C1765.96 967.802 1775.41 958.344 1775.41 946.676C1775.41 935.008 1765.96 925.55 1754.29 925.55C1742.62 925.55 1733.17 935.008 1733.17 946.676C1733.17 958.344 1742.62 967.802 1754.29 967.802Z" fill="black"/>
</svg>
