<svg xmlns="http://www.w3.org/2000/svg" xml:space="preserve" fill-rule="evenodd" stroke-linejoin="round" stroke-miterlimit="2" clip-rule="evenodd" viewBox="0 0 255 255">
<path fill="#fff" d="M254 127a127 127 0 1 1-254 0 127 127 0 0 1 254 0z"/>
<path fill="#0d1117" d="M83 88v-2c0-8 2-16 6-22s9-13 16-17 14-7 22-8 16 1 22 4 12 8 16 14 6 13 6 21v17l-37 4V80l-2-5c-1-2-3-1-5-1l-4 2a8 8 0 0 0-2 5l-1 23c0 6 7 5 7 5l11-1c16-2 33 14 33 41v20c0 8-2 15-6 22s-9 12-16 17-14 7-22 7c-8 1-15 0-22-3s-12-8-16-14-6-14-6-22v-19l37-3h1v20l1 5c1 2 3 2 5 1l5-2c2-3 2-9 2-10v-19c0-7-7-5-7-5l-10 1c-16 1-33-11-33-38l-1-19z"/>
</svg>