<svg width="1000" height="1000" viewBox="0 0 1000 1000" fill="none" xmlns="http://www.w3.org/2000/svg">
<rect width="1000" height="1000" rx="500" fill="black"/>
<g clip-path="url(#clip0_520_394)">
<mask id="mask0_520_394" style="mask-type:luminance" maskUnits="userSpaceOnUse" x="242" y="158" width="517" height="685">
<path d="M257.409 505.622L305.812 453.781L340.125 417.375L363.436 392.065L557.56 184.151C560.34 181.17 563.346 178.082 566.537 175.117C576.382 165.97 587.988 158 600.158 158C604.886 158 609.377 159.225 613.495 161.638C619.297 165.008 622.915 169.74 625.021 175.129C631.115 190.721 624.549 211.812 621.594 221.307L618.213 232.154L605.557 272.759L581.502 349.937L557.446 427.115L713.185 427.146C731.607 427.146 742.418 432.946 748.733 439.282C752.188 442.749 754.297 446.376 755.57 449.301C756.154 450.646 756.726 452.221 757.19 454.006C758.347 458.456 758.838 464.208 757.19 470.937C755.994 475.825 753.669 481.229 749.653 487.024C747.773 489.737 745.522 492.536 742.843 495.408L694.438 547.249L664.5 578.625L636.843 608.932L455.177 803.492L455.176 803.494L455.16 803.511L442.699 816.857C439.911 819.845 436.898 822.942 433.699 825.913C423.864 835.048 412.27 843 400.07 843C395.358 843 390.875 841.775 386.772 839.377C380.977 836.009 377.36 831.283 375.252 825.902C369.138 810.291 375.723 789.164 378.682 779.673L390.233 742.611L390.234 742.608L442.813 573.915L287.067 573.885C275.857 573.885 267.466 571.737 261.19 568.628C257.156 566.628 253.996 564.232 251.525 561.752C248.066 558.283 245.956 554.652 244.682 551.722C241.584 544.608 238.831 530.987 250.6 514.005C252.48 511.292 254.73 508.494 257.409 505.622Z" fill="white"/>
</mask>
<g mask="url(#mask0_520_394)">
<g filter="url(#filter0_f_520_394)">
<path d="M-240 287.307L666.356 -163L736.795 -2.05229L-169.56 448.255L-240 287.307Z" fill="#FF0000"/>
<path d="M-167.561 448.255L738.795 -2.05225L809.235 158.896L-97.1203 609.204L-167.561 448.255Z" fill="#FFA500"/>
<path d="M-97.1201 609.204L809.235 158.896L879.676 319.844L-26.6799 770.152L-97.1201 609.204Z" fill="#FFFF00"/>
<path d="M-26.6797 770.152L879.676 319.844L950.116 480.792L43.7604 931.099L-26.6797 770.152Z" fill="#008000"/>
<path d="M43.7607 931.1L950.116 480.792L1020.56 641.74L114.201 1092.05L43.7607 931.1Z" fill="#0000FF"/>
<path d="M114.201 1092.05L1020.56 641.74L1091 802.688L184.64 1253L114.201 1092.05Z" fill="#800080"/>
<path d="M-240 287.31L666.358 -163L1091 802.688L184.64 1253L-240 287.31Z" fill="white" fill-opacity="0.2"/>
</g>
</g>
</g>
<defs>
<filter id="filter0_f_520_394" x="-495" y="-418" width="1841" height="1926" filterUnits="userSpaceOnUse" color-interpolation-filters="sRGB">
<feFlood flood-opacity="0" result="BackgroundImageFix"/>
<feBlend mode="normal" in="SourceGraphic" in2="BackgroundImageFix" result="shape"/>
<feGaussianBlur stdDeviation="127.5" result="effect1_foregroundBlur_520_394"/>
</filter>
<clipPath id="clip0_520_394">
<rect width="516" height="685" fill="white" transform="translate(242 158)"/>
</clipPath>
</defs>
</svg>
