<svg width="2500" height="999" viewBox="0 0 2500 999" fill="none" xmlns="http://www.w3.org/2000/svg">
<rect width="2500" height="999" fill="white"/>
<g clip-path="url(#clip0_520_409)">
<mask id="mask0_520_409" style="mask-type:luminance" maskUnits="userSpaceOnUse" x="109" y="157" width="517" height="685">
<path d="M124.409 504.622L172.812 452.781L207.125 416.375L230.436 391.065L424.56 183.151C427.34 180.17 430.346 177.082 433.537 174.117C443.382 164.97 454.988 157 467.158 157C471.886 157 476.377 158.225 480.495 160.638C486.297 164.008 489.915 168.74 492.021 174.129C498.115 189.721 491.549 210.812 488.594 220.307L485.213 231.154L472.557 271.759L448.502 348.937L424.446 426.115L580.185 426.146C598.607 426.146 609.418 431.946 615.733 438.282C619.188 441.749 621.297 445.376 622.57 448.301C623.154 449.646 623.726 451.221 624.19 453.006C625.347 457.456 625.838 463.208 624.19 469.937C622.994 474.825 620.669 480.229 616.653 486.024C614.773 488.737 612.522 491.536 609.843 494.408L561.438 546.249L531.5 577.625L503.843 607.932L322.177 802.492L322.176 802.494L322.16 802.511L309.699 815.857C306.911 818.845 303.898 821.942 300.699 824.913C290.864 834.048 279.27 842 267.07 842C262.358 842 257.875 840.775 253.772 838.377C247.977 835.009 244.36 830.283 242.252 824.902C236.138 809.291 242.723 788.164 245.682 778.673L257.233 741.611L257.234 741.608L309.813 572.915L154.067 572.885C142.857 572.885 134.466 570.737 128.19 567.628C124.156 565.628 120.996 563.232 118.525 560.752C115.066 557.283 112.956 553.652 111.682 550.722C108.584 543.608 105.831 529.987 117.6 513.005C119.48 510.292 121.73 507.494 124.409 504.622Z" fill="white"/>
</mask>
<g mask="url(#mask0_520_409)">
<g filter="url(#filter0_f_520_409)">
<path d="M-373 286.307L533.356 -164L603.795 -3.05229L-302.56 447.255L-373 286.307Z" fill="#FF0000"/>
<path d="M-300.56 447.255L605.795 -3.05225L676.235 157.896L-230.12 608.204L-300.56 447.255Z" fill="#FFA500"/>
<path d="M-230.12 608.204L676.235 157.896L746.676 318.844L-159.68 769.152L-230.12 608.204Z" fill="#FFFF00"/>
<path d="M-159.68 769.152L746.676 318.844L817.116 479.792L-89.2396 930.099L-159.68 769.152Z" fill="#008000"/>
<path d="M-89.2395 930.1L817.116 479.792L887.556 640.74L-18.7993 1091.05L-89.2395 930.1Z" fill="#0000FF"/>
<path d="M-18.7993 1091.05L887.556 640.74L958 801.688L51.6404 1252L-18.7993 1091.05Z" fill="#800080"/>
<path d="M-373 286.31L533.358 -164L958 801.688L51.6405 1252L-373 286.31Z" fill="white" fill-opacity="0.2"/>
</g>
</g>
</g>
<path d="M790.682 354.091H824.205V588.182C824.205 598.788 825.388 606.222 827.756 610.483C830.123 614.744 835 616.78 842.386 616.591C846.364 616.402 849.299 616.117 851.193 615.739C853.182 615.265 854.981 614.792 856.591 614.318L863.409 643.295C860.473 644.148 856.78 644.905 852.33 645.568C847.879 646.326 843.239 646.705 838.409 646.705C822.5 646.705 810.568 642.348 802.614 633.636C794.659 624.924 790.682 612.803 790.682 597.273V354.091ZM894.197 645V426.818H927.72V645H894.197ZM911.243 390.455C904.709 390.455 899.074 388.229 894.339 383.778C889.699 379.328 887.379 373.977 887.379 367.727C887.379 361.477 889.699 356.127 894.339 351.676C899.074 347.225 904.709 345 911.243 345C917.777 345 923.364 347.225 928.004 351.676C932.739 356.127 935.107 361.477 935.107 367.727C935.107 373.977 932.739 379.328 928.004 383.778C923.364 388.229 917.777 390.455 911.243 390.455ZM1077.19 731.364C1060.99 731.364 1047.07 729.28 1035.43 725.114C1023.78 721.042 1014.07 715.644 1006.31 708.92C998.636 702.292 992.528 695.189 987.983 687.614L1014.69 668.864C1017.72 672.841 1021.55 677.386 1026.19 682.5C1030.83 687.708 1037.18 692.206 1045.23 695.994C1053.37 699.877 1064.02 701.818 1077.19 701.818C1094.8 701.818 1109.34 697.557 1120.8 689.034C1132.25 680.511 1137.98 667.159 1137.98 648.977V604.659H1135.14C1132.68 608.636 1129.18 613.561 1124.63 619.432C1120.18 625.208 1113.74 630.369 1105.31 634.915C1096.98 639.366 1085.71 641.591 1071.51 641.591C1053.89 641.591 1038.08 637.424 1024.06 629.091C1010.14 620.758 999.11 608.636 990.966 592.727C982.917 576.818 978.892 557.5 978.892 534.773C978.892 512.424 982.822 492.964 990.682 476.392C998.542 459.725 1009.48 446.847 1023.49 437.756C1037.51 428.57 1053.7 423.977 1072.07 423.977C1086.28 423.977 1097.55 426.345 1105.88 431.08C1114.31 435.72 1120.75 441.023 1125.2 446.989C1129.74 452.86 1133.25 457.689 1135.71 461.477H1139.12V426.818H1171.51V651.25C1171.51 670 1167.24 685.246 1158.72 696.989C1150.29 708.826 1138.93 717.491 1124.63 722.983C1110.43 728.57 1094.61 731.364 1077.19 731.364ZM1076.05 611.477C1089.5 611.477 1100.86 608.4 1110.14 602.244C1119.42 596.089 1126.48 587.235 1131.31 575.682C1136.14 564.129 1138.55 550.303 1138.55 534.205C1138.55 518.485 1136.18 504.612 1131.45 492.585C1126.71 480.559 1119.71 471.136 1110.43 464.318C1101.15 457.5 1089.69 454.091 1076.05 454.091C1061.85 454.091 1050.01 457.689 1040.54 464.886C1031.16 472.083 1024.11 481.742 1019.38 493.864C1014.73 505.985 1012.41 519.432 1012.41 534.205C1012.41 549.356 1014.78 562.756 1019.52 574.403C1024.35 585.956 1031.45 595.047 1040.82 601.676C1050.29 608.21 1062.04 611.477 1076.05 611.477ZM1266.39 513.75V645H1232.87V354.091H1266.39V460.909H1269.23C1274.35 449.64 1282.02 440.691 1292.24 434.062C1302.57 427.339 1316.3 423.977 1333.44 423.977C1348.3 423.977 1361.33 426.96 1372.5 432.926C1383.67 438.797 1392.34 447.841 1398.49 460.057C1404.74 472.178 1407.87 487.614 1407.87 506.364V645H1374.35V508.636C1374.35 491.307 1369.85 477.907 1360.85 468.438C1351.95 458.873 1339.59 454.091 1323.78 454.091C1312.79 454.091 1302.95 456.411 1294.23 461.051C1285.62 465.691 1278.8 472.462 1273.78 481.364C1268.85 490.265 1266.39 501.061 1266.39 513.75ZM1564.08 426.818V455.227H1451.02V426.818H1564.08ZM1483.97 374.545H1517.49V582.5C1517.49 591.97 1518.87 599.072 1521.61 603.807C1524.45 608.447 1528.05 611.572 1532.41 613.182C1536.86 614.697 1541.55 615.455 1546.47 615.455C1550.16 615.455 1553.19 615.265 1555.56 614.886C1557.93 614.413 1559.82 614.034 1561.24 613.75L1568.06 643.864C1565.79 644.716 1562.62 645.568 1558.54 646.42C1554.47 647.367 1549.31 647.841 1543.06 647.841C1533.59 647.841 1524.31 645.805 1515.22 641.733C1506.22 637.661 1498.74 631.458 1492.78 623.125C1486.91 614.792 1483.97 604.28 1483.97 591.591V374.545ZM1648.03 513.75V645H1614.51V426.818H1646.9V460.909H1649.74C1654.85 449.83 1662.62 440.928 1673.03 434.205C1683.45 427.386 1696.9 423.977 1713.37 423.977C1728.15 423.977 1741.07 427.008 1752.15 433.068C1763.23 439.034 1771.85 448.125 1778 460.341C1784.16 472.462 1787.24 487.803 1787.24 506.364V645H1753.71V508.636C1753.71 491.496 1749.26 478.144 1740.36 468.58C1731.46 458.92 1719.24 454.091 1703.71 454.091C1693.01 454.091 1683.45 456.411 1675.02 461.051C1666.69 465.691 1660.11 472.462 1655.28 481.364C1650.45 490.265 1648.03 501.061 1648.03 513.75ZM1848.49 645V426.818H1882.02V645H1848.49ZM1865.54 390.455C1859.01 390.455 1853.37 388.229 1848.64 383.778C1844 379.328 1841.68 373.977 1841.68 367.727C1841.68 361.477 1844 356.127 1848.64 351.676C1853.37 347.225 1859.01 345 1865.54 345C1872.07 345 1877.66 347.225 1882.3 351.676C1887.04 356.127 1889.4 361.477 1889.4 367.727C1889.4 373.977 1887.04 379.328 1882.3 383.778C1877.66 388.229 1872.07 390.455 1865.54 390.455ZM1976.94 513.75V645H1943.42V426.818H1975.8V460.909H1978.64C1983.76 449.83 1991.52 440.928 2001.94 434.205C2012.36 427.386 2025.8 423.977 2042.28 423.977C2057.05 423.977 2069.98 427.008 2081.06 433.068C2092.14 439.034 2100.76 448.125 2106.91 460.341C2113.07 472.462 2116.14 487.803 2116.14 506.364V645H2082.62V508.636C2082.62 491.496 2078.17 478.144 2069.27 468.58C2060.37 458.92 2048.15 454.091 2032.62 454.091C2021.92 454.091 2012.36 456.411 2003.93 461.051C1995.59 465.691 1989.01 472.462 1984.18 481.364C1979.35 490.265 1976.94 501.061 1976.94 513.75ZM2265.47 731.364C2249.28 731.364 2235.36 729.28 2223.71 725.114C2212.06 721.042 2202.35 715.644 2194.59 708.92C2186.92 702.292 2180.81 695.189 2176.26 687.614L2202.97 668.864C2206 672.841 2209.83 677.386 2214.47 682.5C2219.11 687.708 2225.46 692.206 2233.51 695.994C2241.65 699.877 2252.31 701.818 2265.47 701.818C2283.08 701.818 2297.62 697.557 2309.08 689.034C2320.54 680.511 2326.26 667.159 2326.26 648.977V604.659H2323.42C2320.96 608.636 2317.46 613.561 2312.91 619.432C2308.46 625.208 2302.02 630.369 2293.59 634.915C2285.26 639.366 2273.99 641.591 2259.79 641.591C2242.17 641.591 2226.36 637.424 2212.34 629.091C2198.42 620.758 2187.39 608.636 2179.25 592.727C2171.2 576.818 2167.17 557.5 2167.17 534.773C2167.17 512.424 2171.1 492.964 2178.96 476.392C2186.82 459.725 2197.76 446.847 2211.78 437.756C2225.79 428.57 2241.98 423.977 2260.36 423.977C2274.56 423.977 2285.83 426.345 2294.16 431.08C2302.59 435.72 2309.03 441.023 2313.48 446.989C2318.03 452.86 2321.53 457.689 2323.99 461.477H2327.4V426.818H2359.79V651.25C2359.79 670 2355.53 685.246 2347 696.989C2338.57 708.826 2327.21 717.491 2312.91 722.983C2298.71 728.57 2282.89 731.364 2265.47 731.364ZM2264.33 611.477C2277.78 611.477 2289.14 608.4 2298.42 602.244C2307.7 596.089 2314.76 587.235 2319.59 575.682C2324.42 564.129 2326.83 550.303 2326.83 534.205C2326.83 518.485 2324.46 504.612 2319.73 492.585C2315 480.559 2307.99 471.136 2298.71 464.318C2289.43 457.5 2277.97 454.091 2264.33 454.091C2250.13 454.091 2238.29 457.689 2228.82 464.886C2219.45 472.083 2212.39 481.742 2207.66 493.864C2203.02 505.985 2200.7 519.432 2200.7 534.205C2200.7 549.356 2203.06 562.756 2207.8 574.403C2212.63 585.956 2219.73 595.047 2229.11 601.676C2238.57 608.21 2250.32 611.477 2264.33 611.477Z" fill="black"/>
<defs>
<filter id="filter0_f_520_409" x="-628" y="-419" width="1841" height="1926" filterUnits="userSpaceOnUse" color-interpolation-filters="sRGB">
<feFlood flood-opacity="0" result="BackgroundImageFix"/>
<feBlend mode="normal" in="SourceGraphic" in2="BackgroundImageFix" result="shape"/>
<feGaussianBlur stdDeviation="127.5" result="effect1_foregroundBlur_520_409"/>
</filter>
<clipPath id="clip0_520_409">
<rect width="516" height="685" fill="white" transform="translate(109 157)"/>
</clipPath>
</defs>
</svg>
