
<svg width="1000" height="1000" viewBox="0 0 1000 1000" fill="none" xmlns="http://www.w3.org/2000/svg">
<g clip-path="url(#clip0_502_2)">
<g filter="url(#filter0_f_502_2)">
<g filter="url(#filter1_d_502_2)">
<rect x="-164.463" y="258.155" width="1000" height="166.667" transform="rotate(-25 -164.463 258.155)" fill="#FF0000"/>
<rect x="-164.463" y="258.155" width="1000" height="166.667" transform="rotate(-25 -164.463 258.155)" fill="white" fill-opacity="0.2"/>
</g>
<g filter="url(#filter2_d_502_2)">
<rect x="-94.0267" y="409.206" width="1000" height="166.667" transform="rotate(-25 -94.0267 409.206)" fill="#FFA500"/>
<rect x="-94.0267" y="409.206" width="1000" height="166.667" transform="rotate(-25 -94.0267 409.206)" fill="white" fill-opacity="0.2"/>
</g>
<g filter="url(#filter3_d_502_2)">
<rect x="-23.5903" y="560.258" width="1000" height="166.667" transform="rotate(-25 -23.5903 560.258)" fill="#FFFF00"/>
<rect x="-23.5903" y="560.258" width="1000" height="166.667" transform="rotate(-25 -23.5903 560.258)" fill="white" fill-opacity="0.2"/>
</g>
<g filter="url(#filter4_d_502_2)">
<rect x="46.8461" y="711.309" width="1000" height="166.667" transform="rotate(-25 46.8461 711.309)" fill="#008000"/>
<rect x="46.8461" y="711.309" width="1000" height="166.667" transform="rotate(-25 46.8461 711.309)" fill="white" fill-opacity="0.2"/>
</g>
<g filter="url(#filter5_d_502_2)">
<rect x="117.282" y="862.36" width="1000" height="166.667" transform="rotate(-25 117.282 862.36)" fill="#0000FF"/>
<rect x="117.282" y="862.36" width="1000" height="166.667" transform="rotate(-25 117.282 862.36)" fill="white" fill-opacity="0.2"/>
</g>
<g filter="url(#filter6_d_502_2)">
<rect x="187.719" y="1013.41" width="1000" height="166.667" transform="rotate(-25 187.719 1013.41)" fill="#800080"/>
<rect x="187.719" y="1013.41" width="1000" height="166.667" transform="rotate(-25 187.719 1013.41)" fill="white" fill-opacity="0.2"/>
</g>
</g>
<g style="mix-blend-mode:hard-light">
<path fill-rule="evenodd" clip-rule="evenodd" d="M1000 0H0V1000H1000V0ZM305.812 452.781L257.409 504.622C254.73 507.494 252.48 510.292 250.599 513.005C238.831 529.987 241.584 543.608 244.682 550.722C245.956 553.652 248.066 557.283 251.525 560.752C253.996 563.232 257.156 565.628 261.19 567.628C267.466 570.737 275.857 572.885 287.067 572.885L442.813 572.915L390.234 741.608L390.233 741.611L378.682 778.673C375.723 788.164 369.138 809.291 375.252 824.902C377.36 830.283 380.977 835.009 386.772 838.377C390.875 840.775 395.358 842 400.07 842C412.27 842 423.864 834.048 433.699 824.913C436.898 821.942 439.911 818.845 442.699 815.857L455.16 802.511L455.16 802.511L455.176 802.494L455.177 802.492L636.843 607.932L664.5 577.625L694.438 546.249L742.843 494.408C745.522 491.536 747.773 488.737 749.653 486.024C753.669 480.229 755.994 474.825 757.19 469.937C758.838 463.208 758.347 457.456 757.19 453.006C756.726 451.221 756.154 449.646 755.57 448.301C754.297 445.376 752.188 441.749 748.733 438.282C742.418 431.946 731.607 426.146 713.185 426.146L557.446 426.115L581.502 348.937L605.557 271.759L618.213 231.154L621.594 220.307C624.549 210.812 631.115 189.721 625.021 174.129C622.915 168.74 619.297 164.008 613.495 160.638C609.377 158.225 604.886 157 600.158 157C587.988 157 576.382 164.97 566.537 174.117C563.346 177.082 560.34 180.17 557.56 183.151L363.436 391.065L340.125 416.375L305.812 452.781Z" fill="black"/>
</g>
</g>
<defs>
<filter id="filter0_f_502_2" x="-419.463" y="-419.463" width="1838.93" height="1838.93" filterUnits="userSpaceOnUse" color-interpolation-filters="sRGB">
<feFlood flood-opacity="0" result="BackgroundImageFix"/>
<feBlend mode="normal" in="SourceGraphic" in2="BackgroundImageFix" result="shape"/>
<feGaussianBlur stdDeviation="127.5" result="effect1_foregroundBlur_502_2"/>
</filter>
<filter id="filter1_d_502_2" x="-196.351" y="-164.463" width="1040.52" height="637.445" filterUnits="userSpaceOnUse" color-interpolation-filters="sRGB">
<feFlood flood-opacity="0" result="BackgroundImageFix"/>
<feColorMatrix in="SourceAlpha" type="matrix" values="0 0 0 0 0 0 0 0 0 0 0 0 0 0 0 0 0 0 127 0" result="hardAlpha"/>
<feOffset dy="31.8878"/>
<feGaussianBlur stdDeviation="15.9439"/>
<feComposite in2="hardAlpha" operator="out"/>
<feColorMatrix type="matrix" values="0 0 0 0 0 0 0 0 0 0 0 0 0 0 0 0 0 0 0.25 0"/>
<feBlend mode="normal" in2="BackgroundImageFix" result="effect1_dropShadow_502_2"/>
<feBlend mode="normal" in="SourceGraphic" in2="effect1_dropShadow_502_2" result="shape"/>
</filter>
<filter id="filter2_d_502_2" x="-125.914" y="-13.4119" width="1040.52" height="637.445" filterUnits="userSpaceOnUse" color-interpolation-filters="sRGB">
<feFlood flood-opacity="0" result="BackgroundImageFix"/>
<feColorMatrix in="SourceAlpha" type="matrix" values="0 0 0 0 0 0 0 0 0 0 0 0 0 0 0 0 0 0 127 0" result="hardAlpha"/>
<feOffset dy="31.8878"/>
<feGaussianBlur stdDeviation="15.9439"/>
<feComposite in2="hardAlpha" operator="out"/>
<feColorMatrix type="matrix" values="0 0 0 0 0 0 0 0 0 0 0 0 0 0 0 0 0 0 0.25 0"/>
<feBlend mode="normal" in2="BackgroundImageFix" result="effect1_dropShadow_502_2"/>
<feBlend mode="normal" in="SourceGraphic" in2="effect1_dropShadow_502_2" result="shape"/>
</filter>
<filter id="filter3_d_502_2" x="-55.4781" y="137.64" width="1040.52" height="637.445" filterUnits="userSpaceOnUse" color-interpolation-filters="sRGB">
<feFlood flood-opacity="0" result="BackgroundImageFix"/>
<feColorMatrix in="SourceAlpha" type="matrix" values="0 0 0 0 0 0 0 0 0 0 0 0 0 0 0 0 0 0 127 0" result="hardAlpha"/>
<feOffset dy="31.8878"/>
<feGaussianBlur stdDeviation="15.9439"/>
<feComposite in2="hardAlpha" operator="out"/>
<feColorMatrix type="matrix" values="0 0 0 0 0 0 0 0 0 0 0 0 0 0 0 0 0 0 0.25 0"/>
<feBlend mode="normal" in2="BackgroundImageFix" result="effect1_dropShadow_502_2"/>
<feBlend mode="normal" in="SourceGraphic" in2="effect1_dropShadow_502_2" result="shape"/>
</filter>
<filter id="filter4_d_502_2" x="14.9584" y="288.691" width="1040.52" height="637.445" filterUnits="userSpaceOnUse" color-interpolation-filters="sRGB">
<feFlood flood-opacity="0" result="BackgroundImageFix"/>
<feColorMatrix in="SourceAlpha" type="matrix" values="0 0 0 0 0 0 0 0 0 0 0 0 0 0 0 0 0 0 127 0" result="hardAlpha"/>
<feOffset dy="31.8878"/>
<feGaussianBlur stdDeviation="15.9439"/>
<feComposite in2="hardAlpha" operator="out"/>
<feColorMatrix type="matrix" values="0 0 0 0 0 0 0 0 0 0 0 0 0 0 0 0 0 0 0.25 0"/>
<feBlend mode="normal" in2="BackgroundImageFix" result="effect1_dropShadow_502_2"/>
<feBlend mode="normal" in="SourceGraphic" in2="effect1_dropShadow_502_2" result="shape"/>
</filter>
<filter id="filter5_d_502_2" x="85.3947" y="439.742" width="1040.52" height="637.445" filterUnits="userSpaceOnUse" color-interpolation-filters="sRGB">
<feFlood flood-opacity="0" result="BackgroundImageFix"/>
<feColorMatrix in="SourceAlpha" type="matrix" values="0 0 0 0 0 0 0 0 0 0 0 0 0 0 0 0 0 0 127 0" result="hardAlpha"/>
<feOffset dy="31.8878"/>
<feGaussianBlur stdDeviation="15.9439"/>
<feComposite in2="hardAlpha" operator="out"/>
<feColorMatrix type="matrix" values="0 0 0 0 0 0 0 0 0 0 0 0 0 0 0 0 0 0 0.25 0"/>
<feBlend mode="normal" in2="BackgroundImageFix" result="effect1_dropShadow_502_2"/>
<feBlend mode="normal" in="SourceGraphic" in2="effect1_dropShadow_502_2" result="shape"/>
</filter>
<filter id="filter6_d_502_2" x="155.831" y="590.794" width="1040.52" height="637.445" filterUnits="userSpaceOnUse" color-interpolation-filters="sRGB">
<feFlood flood-opacity="0" result="BackgroundImageFix"/>
<feColorMatrix in="SourceAlpha" type="matrix" values="0 0 0 0 0 0 0 0 0 0 0 0 0 0 0 0 0 0 127 0" result="hardAlpha"/>
<feOffset dy="31.8878"/>
<feGaussianBlur stdDeviation="15.9439"/>
<feComposite in2="hardAlpha" operator="out"/>
<feColorMatrix type="matrix" values="0 0 0 0 0 0 0 0 0 0 0 0 0 0 0 0 0 0 0.25 0"/>
<feBlend mode="normal" in2="BackgroundImageFix" result="effect1_dropShadow_502_2"/>
<feBlend mode="normal" in="SourceGraphic" in2="effect1_dropShadow_502_2" result="shape"/>
</filter>
<clipPath id="clip0_502_2">
<rect width="1000" height="1000" rx="500" fill="white"/>
</clipPath>
</defs>
</svg>
