<svg width="516" height="685" viewBox="0 0 516 685" fill="none" xmlns="http://www.w3.org/2000/svg">
<g clip-path="url(#clip0_514_109)">
<mask id="mask0_514_109" style="mask-type:luminance" maskUnits="userSpaceOnUse" x="0" y="0" width="517" height="685">
<path d="M15.409 347.622L63.812 295.781L98.125 259.375L121.436 234.065L315.56 26.1512C318.34 23.1703 321.346 20.0819 324.537 17.1171C334.382 7.96996 345.988 0 358.158 0C362.886 0 367.377 1.22536 371.495 3.63803C377.297 7.00783 380.915 11.7399 383.021 17.1286C389.115 32.7213 382.549 53.8123 379.594 63.3072L376.213 74.1536L363.557 114.759L339.502 191.937L315.446 269.115L471.185 269.146C489.607 269.146 500.418 274.946 506.733 281.282C510.188 284.749 512.297 288.376 513.57 291.301C514.154 292.646 514.726 294.221 515.19 296.006C516.347 300.456 516.838 306.208 515.19 312.937C513.994 317.825 511.669 323.229 507.653 329.024C505.773 331.737 503.522 334.536 500.843 337.408L452.438 389.249L422.5 420.625L394.843 450.932L213.177 645.492L213.176 645.494L213.16 645.511L200.699 658.857C197.911 661.845 194.898 664.942 191.699 667.913C181.864 677.048 170.27 685 158.07 685C153.358 685 148.875 683.775 144.772 681.377C138.977 678.009 135.36 673.283 133.252 667.902C127.138 652.291 133.723 631.164 136.682 621.673L148.233 584.611L148.234 584.608L200.813 415.915L45.067 415.885C33.857 415.885 25.466 413.737 19.19 410.628C15.156 408.628 11.9961 406.232 9.52472 403.752C6.06632 400.283 3.95563 396.652 2.68163 393.722C-0.416471 386.608 -3.16927 372.987 8.59953 356.005C10.4796 353.292 12.7303 350.494 15.409 347.622Z" fill="white"/>
</mask>
<g mask="url(#mask0_514_109)">
<g filter="url(#filter0_df_514_109)">
<path d="M-482 129.307L424.356 -321L494.795 -160.052L-411.56 290.255L-482 129.307Z" fill="#FF0000"/>
<path d="M-409.56 290.255L496.795 -160.052L567.235 0.895889L-339.12 451.204L-409.56 290.255Z" fill="#FFA500"/>
<path d="M-339.12 451.204L567.235 0.895996L637.676 161.844L-268.68 612.152L-339.12 451.204Z" fill="#FFFF00"/>
<path d="M-268.68 612.152L637.676 161.844L708.116 322.792L-198.24 773.099L-268.68 612.152Z" fill="#008000"/>
<path d="M-198.24 773.1L708.116 322.792L778.556 483.74L-127.799 934.048L-198.24 773.1Z" fill="#0000FF"/>
<path d="M-127.799 934.048L778.556 483.74L849 644.688L-57.3596 1095L-127.799 934.048Z" fill="#800080"/>
<path d="M-482 129.31L424.358 -321L849 644.688L-57.3595 1095L-482 129.31Z" fill="white" fill-opacity="0.2"/>
</g>
</g>
</g>
<defs>
<filter id="filter0_df_514_109" x="-737" y="-576" width="1841" height="1926" filterUnits="userSpaceOnUse" color-interpolation-filters="sRGB">
<feFlood flood-opacity="0" result="BackgroundImageFix"/>
<feColorMatrix in="SourceAlpha" type="matrix" values="0 0 0 0 0 0 0 0 0 0 0 0 0 0 0 0 0 0 127 0" result="hardAlpha"/>
<feOffset dy="4"/>
<feGaussianBlur stdDeviation="2"/>
<feComposite in2="hardAlpha" operator="out"/>
<feColorMatrix type="matrix" values="0 0 0 0 0 0 0 0 0 0 0 0 0 0 0 0 0 0 0.25 0"/>
<feBlend mode="normal" in2="BackgroundImageFix" result="effect1_dropShadow_514_109"/>
<feBlend mode="normal" in="SourceGraphic" in2="effect1_dropShadow_514_109" result="shape"/>
<feGaussianBlur stdDeviation="127.5" result="effect2_foregroundBlur_514_109"/>
</filter>
<clipPath id="clip0_514_109">
<rect width="516" height="685" fill="white"/>
</clipPath>
</defs>
</svg>
