<svg width="685" height="685" viewBox="0 0 685 685" fill="none" xmlns="http://www.w3.org/2000/svg">
<rect width="685" height="685" fill="#1E1E1E"/>
<g clip-path="url(#clip0_0_1)">
<rect width="685" height="685" fill="#0d1117"/>
<mask id="mask0_0_1" style="mask-type:luminance" maskUnits="userSpaceOnUse" x="85" y="0" width="517" height="685">
<path d="M100.409 347.622L148.812 295.781L183.125 259.375L206.436 234.065L400.56 26.1512C403.34 23.1703 406.346 20.0819 409.537 17.1171C419.382 7.96996 430.988 0 443.158 0C447.886 0 452.377 1.22536 456.495 3.63803C462.297 7.00783 465.915 11.7399 468.021 17.1286C474.115 32.7213 467.549 53.8123 464.594 63.3072L461.213 74.1536L448.557 114.759L424.502 191.937L400.446 269.115L556.185 269.146C574.607 269.146 585.418 274.946 591.733 281.282C595.188 284.749 597.297 288.376 598.57 291.301C599.154 292.646 599.726 294.221 600.19 296.006C601.347 300.456 601.838 306.208 600.19 312.937C598.994 317.825 596.669 323.229 592.653 329.024C590.773 331.737 588.522 334.536 585.843 337.408L537.438 389.249L507.5 420.625L479.843 450.932L298.177 645.492L298.176 645.494L298.16 645.511L298.16 645.511L285.699 658.857C282.911 661.845 279.898 664.942 276.699 667.913C266.864 677.048 255.27 685 243.07 685C238.358 685 233.875 683.775 229.772 681.377C223.977 678.009 220.36 673.283 218.252 667.902C212.138 652.291 218.723 631.164 221.682 621.673L233.233 584.611L233.234 584.608L285.813 415.915L130.067 415.885C118.857 415.885 110.466 413.737 104.19 410.628C100.156 408.628 96.9961 406.232 94.5247 403.752C91.0663 400.283 88.9556 396.652 87.6816 393.722C84.5835 386.608 81.8307 372.987 93.5995 356.005C95.4796 353.292 97.7303 350.494 100.409 347.622Z" fill="white"/>
</mask>
<g mask="url(#mask0_0_1)">
<g filter="url(#filter0_df_0_1)">
<path d="M-229 101.618L677.308 -321L747.744 -169.949L-158.564 252.669L-229 101.618Z" fill="#FF0000"/>
<path d="M-229 101.618L677.308 -321L747.744 -169.949L-158.564 252.669L-229 101.618Z" fill="white" fill-opacity="0.2"/>
<path d="M-158.564 252.669L747.744 -169.949L818.18 -18.8976L-88.1274 403.721L-158.564 252.669Z" fill="#FFA500"/>
<path d="M-158.564 252.669L747.744 -169.949L818.18 -18.8976L-88.1274 403.721L-158.564 252.669Z" fill="white" fill-opacity="0.2"/>
<path d="M-88.1274 403.721L818.18 -18.8976L888.617 132.154L-17.6909 554.772L-88.1274 403.721Z" fill="#FFFF00"/>
<path d="M-88.1274 403.721L818.18 -18.8976L888.617 132.154L-17.6909 554.772L-88.1274 403.721Z" fill="white" fill-opacity="0.2"/>
<path d="M-17.6909 554.772L888.617 132.154L959.053 283.205L52.7455 705.823L-17.6909 554.772Z" fill="#008000"/>
<path d="M-17.6909 554.772L888.617 132.154L959.053 283.205L52.7455 705.823L-17.6909 554.772Z" fill="white" fill-opacity="0.2"/>
<path d="M52.7455 705.823L959.053 283.205L1029.49 434.256L123.182 856.875L52.7455 705.823Z" fill="#0000FF"/>
<path d="M52.7455 705.823L959.053 283.205L1029.49 434.256L123.182 856.875L52.7455 705.823Z" fill="white" fill-opacity="0.2"/>
<path d="M123.182 856.875L1029.49 434.256L1099.93 585.308L193.618 1007.93L123.182 856.875Z" fill="#800080"/>
<path d="M123.182 856.875L1029.49 434.256L1099.93 585.308L193.618 1007.93L123.182 856.875Z" fill="white" fill-opacity="0.2"/>
</g>
</g>
</g>
<defs>
<filter id="filter0_df_0_1" x="-484" y="-576" width="1838.93" height="1838.93" filterUnits="userSpaceOnUse" color-interpolation-filters="sRGB">
<feFlood flood-opacity="0" result="BackgroundImageFix"/>
<feColorMatrix in="SourceAlpha" type="matrix" values="0 0 0 0 0 0 0 0 0 0 0 0 0 0 0 0 0 0 127 0" result="hardAlpha"/>
<feOffset dy="4"/>
<feGaussianBlur stdDeviation="2"/>
<feComposite in2="hardAlpha" operator="out"/>
<feColorMatrix type="matrix" values="0 0 0 0 0 0 0 0 0 0 0 0 0 0 0 0 0 0 0.25 0"/>
<feBlend mode="normal" in2="BackgroundImageFix" result="effect1_dropShadow_0_1"/>
<feBlend mode="normal" in="SourceGraphic" in2="effect1_dropShadow_0_1" result="shape"/>
<feGaussianBlur stdDeviation="127.5" result="effect2_foregroundBlur_0_1"/>
</filter>
<clipPath id="clip0_0_1">
<rect width="685" height="685" fill="white"/>
</clipPath>
</defs>
</svg>
